<?xml version="1.0" encoding="utf-8"?>
<!-- Generator: Adobe Illustrator 25.2.3, SVG Export Plug-In . SVG Version: 6.00 Build 0)  -->
<svg version="1.1" id="Layer_1" xmlns="http://www.w3.org/2000/svg" xmlns:xlink="http://www.w3.org/1999/xlink" x="0px" y="0px"
	 viewBox="0 0 250 250" style="enable-background:new 0 0 250 250;" xml:space="preserve">
<g>
	<g>
		<path d="M250,250H45.5C20.4,250,0,229.6,0,204.5v-159C0,20.4,20.4,0,45.5,0h159C229.6,0,250,20.4,250,45.5V250z M45.5,4.4
			C22.8,4.4,4.4,22.8,4.4,45.5v159c0,22.7,18.4,41.1,41.1,41.1h200.1V45.5c0-22.7-18.4-41.1-41.1-41.1H45.5z"/>
	</g>
	<g>
		<g>
			<path d="M51.2,126.8c1.6,0.9,2.9,2.3,3.8,4c0.9,1.7,1.3,3.7,1.3,5.9c0,2.2-0.4,4.1-1.3,5.7c-0.9,1.7-2.1,2.9-3.8,3.8
				c-1.6,0.9-3.5,1.4-5.6,1.4h-5.6c-0.2,0-0.3,0.1-0.3,0.3v13.6c0,0.2-0.1,0.3-0.2,0.4c-0.1,0.1-0.3,0.2-0.4,0.2h-6.1
				c-0.2,0-0.3-0.1-0.4-0.2c-0.1-0.1-0.2-0.3-0.2-0.4V126c0-0.2,0.1-0.3,0.2-0.4c0.1-0.1,0.3-0.2,0.4-0.2h12.7
				C47.7,125.4,49.5,125.8,51.2,126.8z M47.7,140.3c0.8-0.9,1.2-2.1,1.2-3.6c0-1.5-0.4-2.8-1.2-3.7c-0.8-0.9-1.9-1.4-3.3-1.4h-4.4
				c-0.2,0-0.3,0.1-0.3,0.3v9.4c0,0.2,0.1,0.3,0.3,0.3h4.4C45.7,141.7,46.8,141.2,47.7,140.3z"/>
			<path d="M76.2,161.5l-5.3-14.4c-0.1-0.1-0.2-0.2-0.3-0.2h-3.3c-0.2,0-0.3,0.1-0.3,0.3v14.3c0,0.2-0.1,0.3-0.2,0.4
				c-0.1,0.1-0.3,0.2-0.4,0.2h-6.1c-0.2,0-0.3-0.1-0.4-0.2c-0.1-0.1-0.2-0.3-0.2-0.4V126c0-0.2,0.1-0.3,0.2-0.4
				c0.1-0.1,0.3-0.2,0.4-0.2h12.8c2.1,0,3.9,0.5,5.5,1.4c1.6,0.9,2.8,2.2,3.7,3.9c0.9,1.7,1.3,3.6,1.3,5.8c0,2.2-0.5,4.2-1.5,5.8
				c-1,1.7-2.4,2.9-4.2,3.7c-0.1,0.1-0.2,0.2-0.1,0.4l6,15c0,0.1,0.1,0.2,0.1,0.3c0,0.3-0.2,0.5-0.6,0.5h-6.4
				C76.5,162,76.3,161.8,76.2,161.5z M67.1,132v8.9c0,0.2,0.1,0.3,0.3,0.3h4.5c1.3,0,2.3-0.4,3.1-1.3c0.8-0.9,1.2-2,1.2-3.4
				c0-1.5-0.4-2.6-1.2-3.5c-0.8-0.9-1.8-1.3-3.1-1.3h-4.5C67.2,131.7,67.1,131.8,67.1,132z"/>
			<path d="M92.7,161c-1.8-1-3.3-2.4-4.3-4.1c-1-1.8-1.5-3.9-1.5-6.2v-13.9c0-2.3,0.5-4.4,1.5-6.2c1-1.8,2.4-3.2,4.3-4.1
				c1.8-1,3.9-1.5,6.4-1.5c2.4,0,4.5,0.5,6.4,1.5c1.8,1,3.3,2.4,4.3,4.1c1,1.8,1.5,3.8,1.5,6.2v13.9c0,2.4-0.5,4.4-1.5,6.2
				c-1,1.8-2.4,3.2-4.3,4.1c-1.8,1-4,1.5-6.4,1.5C96.7,162.5,94.5,162,92.7,161z M102.6,154.7c0.9-1,1.3-2.2,1.3-3.7v-14.4
				c0-1.6-0.4-2.8-1.3-3.8c-0.9-1-2-1.4-3.5-1.4c-1.4,0-2.6,0.5-3.5,1.4c-0.9,1-1.3,2.2-1.3,3.8V151c0,1.5,0.4,2.8,1.3,3.7
				c0.9,1,2,1.4,3.5,1.4C100.5,156.2,101.7,155.7,102.6,154.7z"/>
			<path d="M137.7,131.6c-0.1,0.1-0.3,0.2-0.4,0.2h-14c-0.2,0-0.3,0.1-0.3,0.3v8.2c0,0.2,0.1,0.3,0.3,0.3h8.7c0.2,0,0.3,0.1,0.4,0.2
				c0.1,0.1,0.2,0.3,0.2,0.4v5.1c0,0.2-0.1,0.3-0.2,0.4c-0.1,0.1-0.3,0.2-0.4,0.2h-8.7c-0.2,0-0.3,0.1-0.3,0.3v14.4
				c0,0.2-0.1,0.3-0.2,0.4c-0.1,0.1-0.3,0.2-0.4,0.2h-6.1c-0.2,0-0.3-0.1-0.4-0.2c-0.1-0.1-0.2-0.3-0.2-0.4V126
				c0-0.2,0.1-0.3,0.2-0.4c0.1-0.1,0.3-0.2,0.4-0.2h21c0.2,0,0.3,0.1,0.4,0.2c0.1,0.1,0.2,0.3,0.2,0.4v5.1
				C137.9,131.3,137.8,131.4,137.7,131.6z"/>
			<path d="M140.9,161.8c-0.1-0.1-0.2-0.3-0.2-0.4V126c0-0.2,0.1-0.3,0.2-0.4c0.1-0.1,0.3-0.2,0.4-0.2h6.1c0.2,0,0.3,0.1,0.4,0.2
				c0.1,0.1,0.2,0.3,0.2,0.4v35.3c0,0.2-0.1,0.3-0.2,0.4c-0.1,0.1-0.3,0.2-0.4,0.2h-6.1C141.2,162,141,162,140.9,161.8z"/>
			<path d="M153.3,161.8c-0.1-0.1-0.2-0.3-0.2-0.4V126c0-0.2,0.1-0.3,0.2-0.4c0.1-0.1,0.3-0.2,0.4-0.2h6.1c0.2,0,0.3,0.1,0.4,0.2
				c0.1,0.1,0.2,0.3,0.2,0.4v29.4c0,0.2,0.1,0.3,0.3,0.3h14c0.2,0,0.3,0.1,0.4,0.2c0.1,0.1,0.2,0.3,0.2,0.4v5.1
				c0,0.2-0.1,0.3-0.2,0.4c-0.1,0.1-0.3,0.2-0.4,0.2h-21C153.5,162,153.4,162,153.3,161.8z"/>
			<path d="M200.7,131.6c-0.1,0.1-0.3,0.2-0.4,0.2h-14c-0.2,0-0.3,0.1-0.3,0.3v8.2c0,0.2,0.1,0.3,0.3,0.3h8.7c0.2,0,0.3,0.1,0.4,0.2
				c0.1,0.1,0.2,0.3,0.2,0.4v5.1c0,0.2-0.1,0.3-0.2,0.4c-0.1,0.1-0.3,0.2-0.4,0.2h-8.7c-0.2,0-0.3,0.1-0.3,0.3v8.4
				c0,0.2,0.1,0.3,0.3,0.3h14c0.2,0,0.3,0.1,0.4,0.2c0.1,0.1,0.2,0.3,0.2,0.4v5.1c0,0.2-0.1,0.3-0.2,0.4c-0.1,0.1-0.3,0.2-0.4,0.2
				h-21c-0.2,0-0.3-0.1-0.4-0.2c-0.1-0.1-0.2-0.3-0.2-0.4V126c0-0.2,0.1-0.3,0.2-0.4c0.1-0.1,0.3-0.2,0.4-0.2h21
				c0.2,0,0.3,0.1,0.4,0.2c0.1,0.1,0.2,0.3,0.2,0.4v5.1C200.9,131.3,200.8,131.4,200.7,131.6z"/>
		</g>
		<g>
			<path d="M38.9,214.2l-8.2-35.4v-0.2c0-0.3,0.2-0.5,0.6-0.5h6.4c0.4,0,0.6,0.2,0.7,0.6l4,20.1c0,0.1,0.1,0.2,0.2,0.2
				s0.1-0.1,0.2-0.2l3.8-20.1c0-0.4,0.3-0.6,0.7-0.6H53c0.4,0,0.6,0.2,0.7,0.6l4.2,20.1c0,0.1,0.1,0.2,0.2,0.2
				c0.1,0,0.1-0.1,0.2-0.2l3.7-20.1c0-0.4,0.3-0.6,0.7-0.6h6.2c0.5,0,0.6,0.2,0.5,0.7l-7.6,35.3c-0.1,0.4-0.3,0.6-0.7,0.6H55
				c-0.4,0-0.6-0.2-0.7-0.6l-4.2-21c0-0.1-0.1-0.2-0.2-0.2s-0.1,0.1-0.2,0.2l-3.9,21c0,0.4-0.3,0.6-0.7,0.6h-5.7
				C39.2,214.7,39,214.5,38.9,214.2z"/>
			<path d="M94.4,184.2c-0.1,0.1-0.3,0.2-0.4,0.2H80c-0.2,0-0.3,0.1-0.3,0.3v8.2c0,0.2,0.1,0.3,0.3,0.3h8.7c0.2,0,0.3,0.1,0.4,0.2
				c0.1,0.1,0.2,0.3,0.2,0.4v5.1c0,0.2-0.1,0.3-0.2,0.4c-0.1,0.1-0.3,0.2-0.4,0.2H80c-0.2,0-0.3,0.1-0.3,0.3v8.4
				c0,0.2,0.1,0.3,0.3,0.3h14c0.2,0,0.3,0.1,0.4,0.2c0.1,0.1,0.2,0.3,0.2,0.4v5.1c0,0.2-0.1,0.3-0.2,0.4c-0.1,0.1-0.3,0.2-0.4,0.2
				H73c-0.2,0-0.3-0.1-0.4-0.2c-0.1-0.1-0.2-0.3-0.2-0.4v-35.3c0-0.2,0.1-0.3,0.2-0.4c0.1-0.1,0.3-0.2,0.4-0.2h21
				c0.2,0,0.3,0.1,0.4,0.2c0.1,0.1,0.2,0.3,0.2,0.4v5.1C94.6,184,94.6,184.1,94.4,184.2z"/>
			<path d="M117.8,214.2l-1.2-5.1c0-0.1-0.1-0.2-0.3-0.2h-9.8c-0.1,0-0.2,0.1-0.3,0.2l-1.2,5.1c-0.1,0.3-0.3,0.5-0.7,0.5h-6.3
				c-0.5,0-0.6-0.2-0.5-0.7l9.4-35.4c0.1-0.3,0.3-0.5,0.7-0.5h7.6c0.4,0,0.6,0.2,0.7,0.5l9.5,35.4l0.1,0.2c0,0.3-0.2,0.5-0.6,0.5
				h-6.4C118.2,214.7,117.9,214.5,117.8,214.2z M107.8,203.1c0.1,0.1,0.1,0.1,0.2,0.1h6.9c0.1,0,0.1,0,0.2-0.1
				c0.1-0.1,0.1-0.1,0.1-0.2l-3.5-14.8c0-0.1-0.1-0.2-0.2-0.2s-0.1,0.1-0.2,0.2l-3.6,14.8C107.8,202.9,107.8,203,107.8,203.1z"/>
			<path d="M145.5,214.2l-5.3-14.4c-0.1-0.1-0.2-0.2-0.3-0.2h-3.3c-0.2,0-0.3,0.1-0.3,0.3v14.3c0,0.2-0.1,0.3-0.2,0.4
				c-0.1,0.1-0.3,0.2-0.4,0.2h-6.1c-0.2,0-0.3-0.1-0.4-0.2c-0.1-0.1-0.2-0.3-0.2-0.4v-35.4c0-0.2,0.1-0.3,0.2-0.4
				c0.1-0.1,0.3-0.2,0.4-0.2h12.8c2.1,0,3.9,0.5,5.5,1.4c1.6,0.9,2.8,2.2,3.7,3.9c0.9,1.7,1.3,3.6,1.3,5.8c0,2.2-0.5,4.2-1.5,5.8
				c-1,1.7-2.4,2.9-4.2,3.7c-0.1,0.1-0.2,0.2-0.1,0.4l6,15c0,0.1,0.1,0.2,0.1,0.3c0,0.3-0.2,0.5-0.6,0.5h-6.4
				C145.9,214.7,145.7,214.5,145.5,214.2z M136.5,184.7v8.9c0,0.2,0.1,0.3,0.3,0.3h4.5c1.3,0,2.3-0.4,3.1-1.3c0.8-0.9,1.2-2,1.2-3.4
				c0-1.5-0.4-2.6-1.2-3.5c-0.8-0.9-1.8-1.3-3.1-1.3h-4.5C136.5,184.4,136.5,184.5,136.5,184.7z"/>
			<path d="M157.7,213.6c-0.9-0.9-1.3-2-1.3-3.2c0-1.2,0.5-2.3,1.4-3.2c0.9-0.9,2-1.3,3.2-1.3c1.2,0,2.3,0.4,3.2,1.3
				c0.9,0.9,1.4,1.9,1.4,3.2c0,1.3-0.4,2.3-1.3,3.2c-0.9,0.9-2,1.3-3.3,1.3C159.7,214.9,158.6,214.5,157.7,213.6z"/>
			<path d="M175.2,213.8c-1.8-0.9-3.2-2.1-4.2-3.6c-1-1.6-1.5-3.3-1.5-5.4v-1.4c0-0.2,0.1-0.3,0.2-0.4c0.1-0.1,0.3-0.2,0.4-0.2h6
				c0.2,0,0.3,0.1,0.4,0.2c0.1,0.1,0.2,0.3,0.2,0.4v1c0,1.2,0.5,2.2,1.4,3.1c0.9,0.8,2.1,1.2,3.6,1.2c1.4,0,2.4-0.3,3.1-1
				c0.7-0.7,1.1-1.6,1.1-2.7c0-0.8-0.2-1.5-0.7-2.1c-0.5-0.6-1.1-1.1-1.9-1.6c-0.8-0.5-2.1-1.2-3.8-2.1c-2.1-1-3.8-2-5.1-2.9
				c-1.3-0.9-2.5-2.1-3.4-3.5c-0.9-1.4-1.4-3.2-1.4-5.2c0-3.1,1-5.5,3.1-7.3c2.1-1.8,4.8-2.7,8.3-2.7c2.3,0,4.4,0.4,6.2,1.3
				c1.8,0.9,3.2,2.1,4.2,3.7c1,1.6,1.5,3.5,1.5,5.5v1c0,0.2-0.1,0.3-0.2,0.4c-0.1,0.1-0.3,0.2-0.4,0.2h-6c-0.2,0-0.3-0.1-0.4-0.2
				c-0.1-0.1-0.2-0.3-0.2-0.4v-0.9c0-1.3-0.4-2.3-1.3-3.1c-0.9-0.8-2-1.3-3.5-1.3c-1.3,0-2.2,0.3-3,1c-0.7,0.6-1.1,1.5-1.1,2.7
				c0,0.8,0.2,1.5,0.6,2.1c0.4,0.6,1.1,1.2,1.9,1.7c0.9,0.5,2.2,1.2,3.9,2.1l1.1,0.6c2,1.2,3.6,2.1,4.7,3c1.1,0.8,2.1,1.8,2.8,3.1
				c0.8,1.2,1.2,2.7,1.2,4.5c0,3.1-1.1,5.6-3.2,7.5c-2.2,1.9-5,2.8-8.6,2.8C179,215.1,177,214.7,175.2,213.8z"/>
			<path d="M219.1,184.2c-0.1,0.1-0.3,0.2-0.4,0.2h-14c-0.2,0-0.3,0.1-0.3,0.3v8.2c0,0.2,0.1,0.3,0.3,0.3h8.7c0.2,0,0.3,0.1,0.4,0.2
				c0.1,0.1,0.2,0.3,0.2,0.4v5.1c0,0.2-0.1,0.3-0.2,0.4c-0.1,0.1-0.3,0.2-0.4,0.2h-8.7c-0.2,0-0.3,0.1-0.3,0.3v8.4
				c0,0.2,0.1,0.3,0.3,0.3h14c0.2,0,0.3,0.1,0.4,0.2c0.1,0.1,0.2,0.3,0.2,0.4v5.1c0,0.2-0.1,0.3-0.2,0.4c-0.1,0.1-0.3,0.2-0.4,0.2
				h-21c-0.2,0-0.3-0.1-0.4-0.2c-0.1-0.1-0.2-0.3-0.2-0.4v-35.3c0-0.2,0.1-0.3,0.2-0.4c0.1-0.1,0.3-0.2,0.4-0.2h21
				c0.2,0,0.3,0.1,0.4,0.2c0.1,0.1,0.2,0.3,0.2,0.4v5.1C219.3,184,219.3,184.1,219.1,184.2z"/>
		</g>
	</g>
</g>
</svg>
