<svg width="188" height="252" viewBox="0 0 188 252" fill="none" xmlns="http://www.w3.org/2000/svg">
<g id="Group 1730">
<g id="Group 1728">
<g id="Group 1727">
<path id="RRR" d="M174.631 198.305L187.018 212.38V45.6421L142.469 1.09375H30.4619V211.744H31.0983L41.0598 199.015C41.8344 198.025 43.3193 197.987 44.144 198.935L53.7401 209.971C54.5485 210.9 55.9971 210.885 56.7857 209.939L66.4795 198.306C67.277 197.349 68.746 197.346 69.5473 198.3L79.7214 210.412C80.5599 211.411 82.1141 211.353 82.8759 210.295L91.3959 198.461C92.136 197.433 93.6332 197.343 94.4908 198.276L105.849 210.621C106.692 211.538 108.159 211.469 108.913 210.477L118.044 198.462C118.82 197.441 120.343 197.404 121.168 198.386L131.354 210.512C132.166 211.478 133.659 211.461 134.447 210.475L144.226 198.251C144.981 197.307 146.394 197.244 147.231 198.115L159.305 210.693C160.156 211.579 161.597 211.496 162.34 210.518L171.538 198.416C172.302 197.41 173.797 197.356 174.631 198.305Z" fill="white" stroke="#4E4E4E"/>
<path id="Vector 10" d="M142.968 44.5058V2.30086L185.173 44.5058H142.968Z" fill="#EEEEEE" stroke="#4E4E4E"/>
</g>
<g id="404">
<path d="M84.9922 112.939C85.2224 112.939 85.4066 113.031 85.5448 113.215C85.729 113.353 85.8211 113.537 85.8211 113.768V120.744C85.8211 120.975 85.729 121.182 85.5448 121.366C85.4066 121.504 85.2224 121.573 84.9922 121.573H82.022C81.7917 121.573 81.6766 121.688 81.6766 121.919V133.178C81.6766 133.408 81.5845 133.615 81.4003 133.8C81.2621 133.938 81.0779 134.007 80.8477 134.007H72.7659C72.5356 134.007 72.3284 133.938 72.1442 133.8C72.0061 133.615 71.937 133.408 71.937 133.178V121.919C71.937 121.688 71.8219 121.573 71.5916 121.573H50.3855C50.1553 121.573 49.9481 121.504 49.7639 121.366C49.6257 121.182 49.5566 120.975 49.5566 120.744V115.218C49.5566 114.942 49.6257 114.597 49.7639 114.182L62.1974 86.2758C62.3816 85.8614 62.7039 85.6542 63.1644 85.6542H71.7988C72.1212 85.6542 72.3284 85.7463 72.4205 85.9305C72.5587 86.0686 72.5587 86.2989 72.4205 86.6212L60.885 112.524C60.8389 112.616 60.8389 112.709 60.885 112.801C60.931 112.893 61.0001 112.939 61.0922 112.939H71.5916C71.8219 112.939 71.937 112.824 71.937 112.593V104.028C71.937 103.798 72.0061 103.614 72.1442 103.476C72.3284 103.291 72.5356 103.199 72.7659 103.199H80.8477C81.0779 103.199 81.2621 103.291 81.4003 103.476C81.5845 103.614 81.6766 103.798 81.6766 104.028V112.593C81.6766 112.824 81.7917 112.939 82.022 112.939H84.9922Z" fill="#F6BACB"/>
<path d="M108.717 134.767C103.652 134.767 99.6455 133.362 96.6983 130.553C93.7511 127.698 92.2775 123.83 92.2775 118.948V100.713C92.2775 95.9233 93.7511 92.1242 96.6983 89.3151C99.6455 86.5061 103.652 85.1016 108.717 85.1016C113.783 85.1016 117.789 86.5061 120.736 89.3151C123.73 92.1242 125.226 95.9233 125.226 100.713V118.948C125.226 123.83 123.73 127.698 120.736 130.553C117.789 133.362 113.783 134.767 108.717 134.767ZM108.717 126.408C110.79 126.408 112.424 125.787 113.622 124.543C114.865 123.254 115.487 121.55 115.487 119.432V100.436C115.487 98.3179 114.865 96.6371 113.622 95.3938C112.424 94.1044 110.79 93.4597 108.717 93.4597C106.691 93.4597 105.056 94.1044 103.813 95.3938C102.616 96.6371 102.017 98.3179 102.017 100.436V119.432C102.017 121.55 102.616 123.254 103.813 124.543C105.056 125.787 106.691 126.408 108.717 126.408Z" fill="#F6BACB"/>
<path d="M166.209 112.939C166.44 112.939 166.624 113.031 166.762 113.215C166.946 113.353 167.038 113.537 167.038 113.768V120.744C167.038 120.975 166.946 121.182 166.762 121.366C166.624 121.504 166.44 121.573 166.209 121.573H163.239C163.009 121.573 162.894 121.688 162.894 121.919V133.178C162.894 133.408 162.802 133.615 162.618 133.8C162.479 133.938 162.295 134.007 162.065 134.007H153.983C153.753 134.007 153.546 133.938 153.361 133.8C153.223 133.615 153.154 133.408 153.154 133.178V121.919C153.154 121.688 153.039 121.573 152.809 121.573H131.603C131.373 121.573 131.165 121.504 130.981 121.366C130.843 121.182 130.774 120.975 130.774 120.744V115.218C130.774 114.942 130.843 114.597 130.981 114.182L143.415 86.2758C143.599 85.8614 143.921 85.6542 144.382 85.6542H153.016C153.338 85.6542 153.546 85.7463 153.638 85.9305C153.776 86.0686 153.776 86.2989 153.638 86.6212L142.102 112.524C142.056 112.616 142.056 112.709 142.102 112.801C142.148 112.893 142.217 112.939 142.309 112.939H152.809C153.039 112.939 153.154 112.824 153.154 112.593V104.028C153.154 103.798 153.223 103.614 153.361 103.476C153.546 103.291 153.753 103.199 153.983 103.199H162.065C162.295 103.199 162.479 103.291 162.618 103.476C162.802 103.614 162.894 103.798 162.894 104.028V112.593C162.894 112.824 163.009 112.939 163.239 112.939H166.209Z" fill="#F6BACB"/>
</g>
</g>
<g id="Group 1729">
<ellipse id="Ellipse 6" cx="30.0002" cy="196.5" rx="27" ry="27.5" fill="white"/>
<path id="Search" d="M86.33 243.299C86.33 245.444 85.4948 247.461 83.977 248.977C82.4612 250.495 80.4445 251.33 78.2993 251.33C76.1541 251.33 74.1374 250.495 72.6216 248.977L51.5411 227.896C50.7571 227.112 50.7571 225.841 51.5411 225.057L54.3799 222.219L49.9279 217.767C44.6277 222.407 37.6972 225.23 30.1153 225.23C13.5098 225.23 0.000244141 211.72 0.000244141 195.115C0.000244141 178.51 13.5098 165 30.1153 165C46.7207 165 60.2303 178.51 60.2303 195.115C60.2303 202.697 57.4075 209.627 52.7668 214.928L57.2188 219.38L60.0576 216.541C60.8416 215.757 62.1125 215.757 62.8965 216.541L83.977 237.621C85.4948 239.137 86.33 241.154 86.33 243.299ZM56.2149 195.115C56.2149 180.724 44.5072 169.015 30.1153 169.015C15.7233 169.015 4.01558 180.724 4.01558 195.115C4.01558 209.506 15.7233 221.215 30.1153 221.215C44.5072 221.215 56.2149 209.506 56.2149 195.115ZM82.3146 243.299C82.3146 242.227 81.897 241.219 81.1381 240.46L61.477 220.799L55.7994 226.477L75.4604 246.138C76.9782 247.656 79.6213 247.656 81.1381 246.138C81.897 245.379 82.3146 244.371 82.3146 243.299Z" fill="#4E4E4E"/>
</g>
</g>
</svg>
