<svg width="32" height="32" viewBox="0 0 32 32" fill="none" xmlns="http://www.w3.org/2000/svg">
<g id="approve (1) 1" clip-path="url(#clip0_109_5096)">
<path id="Vector" d="M24.0625 31.4874C28.4375 31.4874 32 27.9249 32 23.5499C32 19.1812 28.45 15.625 24.0875 15.6125C22.8125 14.725 21.2 14.0437 19.3563 13.5937C20.675 12.2062 21.4875 10.325 21.4875 8.26245C21.4875 3.98745 18.0125 0.512451 13.7375 0.512451C9.4625 0.512451 5.9875 3.98745 5.9875 8.26245C5.9875 10.325 6.8 12.2 8.11875 13.5937C6.0875 14.0812 4.34375 14.8625 3.0125 15.8812C1.0375 17.3937 0 19.4062 0 21.7187V27.5C0 29.7 2.0375 31.4874 4.54375 31.4874M30.375 23.5499C30.375 27.0312 27.5438 29.8624 24.0625 29.8624C20.5812 29.8624 17.75 27.0312 17.75 23.5499C17.75 20.0687 20.5812 17.2374 24.0625 17.2374C27.5438 17.2374 30.375 20.0687 30.375 23.5499ZM13.7312 2.13745C17.1125 2.13745 19.8563 4.88745 19.8563 8.26245C19.8563 11.6375 17.1062 14.3875 13.7312 14.3875C10.3562 14.3875 7.60625 11.6375 7.60625 8.26245C7.60625 4.88745 10.3562 2.13745 13.7312 2.13745ZM1.625 21.7187C1.625 19.9062 2.425 18.3812 3.99375 17.1749C5.40625 16.0937 7.39375 15.3125 9.75625 14.9187C10.9188 15.6187 12.2812 16.0187 13.7312 16.0187C15.1812 16.0187 16.5437 15.6187 17.7062 14.9187C19.125 15.1562 20.4125 15.5312 21.5187 16.0312C18.3875 17.0937 16.1313 20.0624 16.1313 23.5499C16.1313 26.1187 17.3625 28.4062 19.2625 29.8624H4.54375C2.93125 29.8624 1.625 28.8 1.625 27.5V21.7187Z" fill="#7EC39B"/>
<path id="Vector_2" d="M27.9187 20.625C27.6 20.3063 27.0875 20.3063 26.7687 20.625L23.0625 24.3313L21.3625 22.6313C21.0437 22.3125 20.5312 22.3125 20.2125 22.6313C19.8937 22.95 19.8937 23.4625 20.2125 23.7813L22.4875 26.0563C22.6375 26.2063 22.85 26.2938 23.0625 26.2938C23.2812 26.2938 23.4875 26.2063 23.6375 26.0563L27.9187 21.775C28.2375 21.4563 28.2375 20.9438 27.9187 20.625Z" fill="#F6BACB"/>
</g>
<defs>
<clipPath id="clip0_109_5096">
<rect width="32" height="32" fill="white"/>
</clipPath>
</defs>
</svg>
