<svg width="120" height="109" viewBox="0 0 120 109" fill="none" xmlns="http://www.w3.org/2000/svg">
<g id="ARROW03">
<path id="Vector" d="M115.693 70.4094L115.255 68.6182C114.017 68.9731 112.752 69.3 111.497 69.6033L111.866 71.4023C113.137 71.0927 114.418 70.7596 115.687 70.3922L115.693 70.4094ZM108.03 72.2625L107.725 70.4385C106.452 70.6903 105.19 70.9188 103.901 71.1191L104.153 72.9447C105.443 72.7444 106.737 72.5034 108.025 72.2453L108.03 72.2625ZM100.267 73.4941L100.084 71.6607C98.7984 71.8204 97.5174 71.9395 96.2365 72.0586L96.3674 73.8936C97.6698 73.7854 98.9823 73.6538 100.267 73.4941ZM92.4314 74.1322L92.3693 72.2894C91.0869 72.3507 89.7931 72.3777 88.5092 72.3812L88.5183 74.2256C89.8179 74.2158 91.1275 74.1826 92.4472 74.126L92.4314 74.1322ZM84.5809 74.1925L84.6248 72.3466C83.3452 72.3095 82.0542 72.2381 80.7632 72.1666L80.6663 74.0142C81.963 74.1028 83.2698 74.168 84.5866 74.2097L84.5809 74.1925ZM76.7474 73.6625L76.903 71.8305C75.6263 71.6951 74.3439 71.5425 73.0557 71.3726L72.847 73.2062C74.1409 73.3932 75.4391 73.5395 76.7531 73.6797L76.7474 73.6625ZM68.9581 72.5702L69.2255 70.7523C67.9574 70.5356 66.6778 70.2846 65.424 70.0039L65.0978 71.8062C66.3831 72.0744 67.6627 72.3255 68.9581 72.5702ZM61.2504 70.9204L61.6296 69.1165C60.3643 68.8014 59.1248 68.4567 57.8795 68.0948L57.4416 69.8831C58.7083 70.2559 59.9793 70.5882 61.2446 70.9032L61.2504 70.9204ZM53.6671 68.7348L54.1481 66.9684C52.9071 66.5658 51.6762 66.1399 50.4553 65.6905L49.9156 67.4414C51.158 67.9017 52.4047 68.3214 53.6514 68.7411L53.6671 68.7348ZM46.2242 66.0073L46.8069 64.2783C45.606 63.7821 44.3994 63.2686 43.2029 62.7318L42.5614 64.4452C43.7738 64.9758 44.9861 65.5064 46.2242 66.0073ZM38.9645 62.7597L39.6705 61.0791C38.4939 60.4953 37.3332 59.9054 36.1609 59.2811L35.412 60.9399C36.5842 61.5642 37.7665 62.1651 38.9645 62.7597ZM31.9253 58.9966L32.7173 57.3597C31.5866 56.6994 30.4501 56.022 29.3395 55.3149L28.4988 56.9128C29.631 57.6308 30.7731 58.3255 31.9253 58.9966ZM25.1225 54.7119L26.0276 53.1467C24.937 52.3927 23.8464 51.6388 22.7816 50.8551L21.8277 52.3813C22.914 53.1758 24.0104 53.947 25.1225 54.7119ZM18.6046 49.9444L19.6014 48.4402C18.5567 47.6096 17.5277 46.7729 16.5087 45.9127L15.4631 47.3779C16.4878 48.2553 17.5383 49.103 18.6046 49.9444ZM12.419 44.6756L13.4975 43.2556C12.5201 42.3595 11.5312 41.429 10.5795 40.5032L9.4465 41.867C10.4254 42.8209 11.3986 43.7576 12.4032 44.6818L12.419 44.6756ZM6.59866 38.9506L7.78038 37.6258C6.86453 36.6469 5.94294 35.6508 5.05287 34.6422L3.83816 35.9217C4.73397 36.9475 5.66131 37.9607 6.59866 38.9506Z" fill="#69949E"/>
<path id="Vector_2" d="M111.634 78.2448L110.218 77.2114L114.83 69.6433L107.555 65.176L108.39 63.5608L117.26 69.01L111.634 78.2448Z" fill="#69949E"/>
</g>
</svg>
