<svg width="120" height="109" viewBox="0 0 120 109" fill="none" xmlns="http://www.w3.org/2000/svg">
<g id="ARROW01">
<path id="Vector" d="M115.693 38.5906L115.255 40.3818C114.017 40.0269 112.752 39.7 111.497 39.3967L111.866 37.5977C113.137 37.9073 114.418 38.2404 115.687 38.6078L115.693 38.5906ZM108.03 36.7375L107.725 38.5615C106.452 38.3097 105.19 38.0812 103.901 37.8809L104.153 36.0553C105.443 36.2556 106.737 36.4966 108.025 36.7547L108.03 36.7375ZM100.267 35.5059L100.084 37.3393C98.7984 37.1796 97.5174 37.0605 96.2365 36.9414L96.3674 35.1064C97.6698 35.2146 98.9823 35.3462 100.267 35.5059ZM92.4314 34.8678L92.3693 36.7106C91.0869 36.6493 89.7931 36.6223 88.5092 36.6188L88.5183 34.7744C89.8179 34.7842 91.1275 34.8174 92.4472 34.874L92.4314 34.8678ZM84.5809 34.8075L84.6248 36.6534C83.3452 36.6905 82.0542 36.7619 80.7632 36.8334L80.6663 34.9858C81.963 34.8972 83.2698 34.832 84.5866 34.7903L84.5809 34.8075ZM76.7474 35.3375L76.903 37.1695C75.6263 37.3049 74.3439 37.4575 73.0557 37.6274L72.847 35.7938C74.1409 35.6068 75.4391 35.4605 76.7531 35.3203L76.7474 35.3375ZM68.9581 36.4298L69.2255 38.2477C67.9574 38.4644 66.6778 38.7154 65.424 38.9961L65.0978 37.1938C66.3831 36.9256 67.6627 36.6745 68.9581 36.4298ZM61.2504 38.0796L61.6296 39.8835C60.3643 40.1986 59.1248 40.5433 57.8795 40.9052L57.4416 39.1169C58.7083 38.7441 59.9793 38.4118 61.2446 38.0968L61.2504 38.0796ZM53.6671 40.2652L54.1481 42.0316C52.9071 42.4342 51.6762 42.8601 50.4553 43.3095L49.9156 41.5586C51.158 41.0983 52.4047 40.6786 53.6514 40.2589L53.6671 40.2652ZM46.2242 42.9927L46.8069 44.7217C45.606 45.2179 44.3994 45.7314 43.2029 46.2682L42.5614 44.5548C43.7738 44.0242 44.9861 43.4936 46.2242 42.9927ZM38.9645 46.2403L39.6705 47.9209C38.4939 48.5047 37.3332 49.0946 36.1609 49.7189L35.412 48.0601C36.5842 47.4358 37.7665 46.8349 38.9645 46.2403ZM31.9253 50.0034L32.7173 51.6403C31.5866 52.3006 30.4501 52.978 29.3395 53.6851L28.4988 52.0872C29.631 51.3692 30.7731 50.6745 31.9253 50.0034ZM25.1225 54.2881L26.0276 55.8533C24.937 56.6073 23.8464 57.3612 22.7816 58.1449L21.8277 56.6187C22.914 55.8242 24.0104 55.053 25.1225 54.2881ZM18.6046 59.0556L19.6014 60.5598C18.5567 61.3904 17.5277 62.2271 16.5087 63.0873L15.4631 61.6221C16.4878 60.7447 17.5383 59.897 18.6046 59.0556ZM12.419 64.3244L13.4975 65.7444C12.5201 66.6405 11.5312 67.571 10.5795 68.4968L9.4465 67.133C10.4254 66.1791 11.3986 65.2424 12.4032 64.3182L12.419 64.3244ZM6.59866 70.0494L7.78038 71.3742C6.86453 72.3531 5.94294 73.3492 5.05287 74.3578L3.83816 73.0783C4.73397 72.0525 5.66131 71.0393 6.59866 70.0494Z" fill="#69949E"/>
<path id="Vector_2" d="M111.634 30.7552L110.218 31.7886L114.83 39.3567L107.555 43.824L108.39 45.4392L117.26 39.99L111.634 30.7552Z" fill="#69949E"/>
</g>
</svg>
