<svg width="96" height="110" viewBox="0 0 96 110" fill="none" xmlns="http://www.w3.org/2000/svg">
<g id="ARROW01">
<path id="Vector" d="M6.36695 94.9847L8.1369 95.5014C8.44848 94.2519 8.79801 92.9929 9.16282 91.7542L7.42048 91.1741C7.0532 92.4295 6.70121 93.7053 6.3847 94.9883L6.36695 94.9847ZM8.59329 87.4223L10.3258 88.0696C10.7438 86.8418 11.1771 85.6345 11.6484 84.4175L9.94106 83.7236C9.46979 84.9405 9.03154 86.1814 8.61103 87.4259L8.59329 87.4223ZM11.4081 80.0837L13.0879 80.8412C13.5922 79.6483 14.1295 78.4794 14.6668 77.3105L13.0122 76.5064C12.4547 77.6884 11.9124 78.8908 11.4081 80.0837ZM14.7735 72.9784L16.4005 73.846C16.9886 72.7048 17.6122 71.5708 18.251 70.4572L16.6492 69.5429C16.0079 70.6733 15.3818 71.824 14.7711 72.9952L14.7735 72.9784ZM18.6466 66.1495L20.2233 67.1105C20.8951 66.0209 21.6025 64.9386 22.3099 63.8563L20.7583 62.8485C20.0332 63.9272 19.3234 65.0264 18.6288 66.1459L18.6466 66.1495ZM23.0223 59.6305L24.531 60.6813C25.2867 59.6434 26.0601 58.609 26.8512 57.5784L25.3677 56.4809C24.5588 57.5079 23.7829 58.559 23.0046 59.6269L23.0223 59.6305ZM27.8629 53.4309L29.3036 54.5715C30.1253 53.5816 30.9825 52.599 31.8525 51.6535L30.4547 50.4698C29.5798 51.4488 28.7226 52.4315 27.8629 53.4309ZM33.1456 47.5807L34.5182 48.8111C35.4237 47.8729 36.342 46.9718 37.2781 46.0744L35.9483 44.8009C34.9921 45.7115 34.0688 46.6461 33.1633 47.5844L33.1456 47.5807ZM38.8299 42.1063L40.1193 43.406C41.0883 42.5326 42.0727 41.6795 43.0723 40.8469L41.8259 39.5041C40.806 40.3499 39.8192 41.2197 38.8324 42.0895L38.8299 42.1063ZM44.9135 37.0242L46.1195 38.3934C47.1497 37.6015 48.1976 36.8133 49.2609 36.0455L48.0977 34.6332C47.032 35.4179 45.9664 36.2025 44.9135 37.0242ZM51.3559 32.361L52.4584 33.8127C53.5521 33.0856 54.6434 32.3754 55.7702 31.6723L54.7081 30.1943C53.5814 30.8974 52.4699 31.6208 51.3559 32.361ZM58.1344 28.1464L59.156 29.6507C60.2932 29.0016 61.4481 28.3562 62.6158 27.7479L61.6523 26.2209C60.4643 26.8423 59.2917 27.4842 58.1344 28.1464ZM65.2465 24.3973L66.1494 25.9638C67.3477 25.3963 68.5459 24.8288 69.757 24.2984L68.9123 22.7093C67.681 23.2528 66.465 23.8167 65.2465 24.3973ZM72.6342 21.1364L73.4385 22.7518C74.6801 22.2623 75.9193 21.7895 77.1737 21.3372L76.4276 19.699C75.1554 20.1478 73.896 20.6337 72.6342 21.1364ZM80.29 18.4139L80.9804 20.058C82.2452 19.6596 83.5455 19.2684 84.823 18.9071L84.2085 17.244C82.893 17.6148 81.5952 17.9892 80.2924 18.3972L80.29 18.4139ZM88.1581 16.2359L88.7145 17.9217C90.0202 17.618 91.3436 17.3179 92.6621 17.0514L92.1614 15.3597C90.8252 15.6226 89.484 15.9191 88.1581 16.2359Z" fill="#69949E"/>
<path id="Vector_2" d="M1.61119 87.5522L3.21412 86.8427L7.46241 94.6206L14.9684 90.5545L15.9497 92.0851L6.79588 97.0416L1.61119 87.5522Z" fill="#69949E"/>
</g>
</svg>
