<svg width="96" height="110" viewBox="0 0 96 110" fill="none" xmlns="http://www.w3.org/2000/svg">
<g id="ARROW01">
<path id="Vector" d="M89.6328 94.9847L87.8629 95.5014C87.5513 94.2519 87.2017 92.9929 86.8369 91.7542L88.5793 91.1741C88.9466 92.4295 89.2985 93.7053 89.6151 94.9883L89.6328 94.9847ZM87.4065 87.4223L85.674 88.0696C85.2559 86.8418 84.8226 85.6345 84.3513 84.4175L86.0587 83.7236C86.53 84.9405 86.9682 86.1814 87.3887 87.4259L87.4065 87.4223ZM84.5916 80.0837L82.9119 80.8412C82.4076 79.6483 81.8703 78.4794 81.333 77.3105L82.9875 76.5064C83.5451 77.6884 84.0873 78.8908 84.5916 80.0837ZM81.2262 72.9784L79.5992 73.846C79.0112 72.7048 78.3876 71.5708 77.7487 70.4572L79.3506 69.5429C79.9919 70.6733 80.6179 71.824 81.2287 72.9952L81.2262 72.9784ZM77.3532 66.1495L75.7765 67.1105C75.1046 66.0209 74.3972 64.9386 73.6899 63.8563L75.2414 62.8485C75.9666 63.9272 76.6764 65.0264 77.3709 66.1459L77.3532 66.1495ZM72.9774 59.6305L71.4687 60.6813C70.7131 59.6434 69.9397 58.609 69.1485 57.5784L70.6321 56.4809C71.4409 57.5079 72.2168 58.559 72.9951 59.6269L72.9774 59.6305ZM68.1369 53.4309L66.6962 54.5715C65.8745 53.5816 65.0173 52.599 64.1473 51.6535L65.5451 50.4698C66.42 51.4488 67.2772 52.4315 68.1369 53.4309ZM62.8542 47.5807L61.4816 48.8111C60.5761 47.8729 59.6577 46.9718 58.7217 46.0744L60.0514 44.8009C61.0077 45.7115 61.9309 46.6461 62.8364 47.5844L62.8542 47.5807ZM57.1698 42.1063L55.8805 43.406C54.9114 42.5326 53.9271 41.6795 52.9274 40.8469L54.1739 39.5041C55.1937 40.3499 56.1805 41.2197 57.1674 42.0895L57.1698 42.1063ZM51.0863 37.0242L49.8802 38.3934C48.85 37.6015 47.8021 36.8133 46.7389 36.0455L47.902 34.6332C48.9677 35.4179 50.0334 36.2025 51.0863 37.0242ZM44.6439 32.361L43.5414 33.8127C42.4476 33.0856 41.3563 32.3754 40.2295 31.6723L41.2916 30.1943C42.4184 30.8974 43.5299 31.6208 44.6439 32.361ZM37.8654 28.1464L36.8437 29.6507C35.7066 29.0016 34.5517 28.3562 33.384 27.7479L34.3475 26.2209C35.5354 26.8423 36.708 27.4842 37.8654 28.1464ZM30.7532 24.3973L29.8503 25.9638C28.6521 25.3963 27.4538 24.8288 26.2428 24.2984L27.0875 22.7093C28.3188 23.2528 29.5348 23.8167 30.7532 24.3973ZM23.3656 21.1364L22.5613 22.7518C21.3196 22.2623 20.0805 21.7895 18.826 21.3372L19.5722 19.699C20.8444 20.1478 22.1037 20.6337 23.3656 21.1364ZM15.7098 18.4139L15.0194 20.058C13.7546 19.6596 12.4543 19.2684 11.1767 18.9071L11.7912 17.244C13.1068 17.6148 14.4046 17.9892 15.7073 18.3972L15.7098 18.4139ZM7.84164 16.2359L7.28526 17.9217C5.97957 17.618 4.65614 17.3179 3.33764 17.0514L3.83831 15.3597C5.17456 15.6226 6.51575 15.9191 7.84164 16.2359Z" fill="#69949E"/>
<path id="Vector_2" d="M94.3886 87.5522L92.7856 86.8427L88.5373 94.6206L81.0313 90.5545L80.0501 92.0851L89.2039 97.0416L94.3886 87.5522Z" fill="#69949E"/>
</g>
</svg>
