<svg width="7" height="4" viewBox="0 0 7 4" fill="none" xmlns="http://www.w3.org/2000/svg">
<path id="ARROW DOWN" d="M6.87006 3.86807C6.78353 3.95605 6.68096 4 6.56244 4H0.437533C0.318968 4 0.216468 3.95605 0.129866 3.86807C0.0432649 3.78 0 3.67588 0 3.55551C0 3.43516 0.0432649 3.33103 0.129866 3.24304L3.19233 0.132022C3.27903 0.0440481 3.38153 3.62414e-08 3.5 3.62414e-08C3.61847 3.62414e-08 3.72107 0.0440481 3.80759 0.132022L6.87006 3.24306C6.95657 3.33103 7 3.43516 7 3.55553C7 3.67588 6.95657 3.78 6.87006 3.86807Z" fill="#7A8089"/>
</svg>
