<svg width="48" height="49" viewBox="0 0 48 49" fill="none" xmlns="http://www.w3.org/2000/svg">
<g id="Group 82">
<circle id="Ellipse 2" cx="24" cy="24.5" r="24" fill="white"/>
<g id="call">
<mask id="mask0_161_1295" style="mask-type:alpha" maskUnits="userSpaceOnUse" x="12" y="12" width="24" height="25">
<rect id="Bounding box" x="12" y="12.5" width="24" height="24" fill="#D9D9D9"/>
</mask>
<g mask="url(#mask0_161_1295)">
<path id="call_2" d="M31.95 33.5C29.8 33.5 27.7042 33.0208 25.6625 32.0625C23.6208 31.1042 21.8125 29.8375 20.2375 28.2625C18.6625 26.6875 17.3958 24.8792 16.4375 22.8375C15.4792 20.7958 15 18.7 15 16.55C15 16.25 15.1 16 15.3 15.8C15.5 15.6 15.75 15.5 16.05 15.5H20.1C20.3333 15.5 20.5417 15.575 20.725 15.725C20.9083 15.875 21.0167 16.0667 21.05 16.3L21.7 19.8C21.7333 20.0333 21.7292 20.2458 21.6875 20.4375C21.6458 20.6292 21.55 20.8 21.4 20.95L18.975 23.4C19.675 24.6 20.5542 25.725 21.6125 26.775C22.6708 27.825 23.8333 28.7333 25.1 29.5L27.45 27.15C27.6 27 27.7958 26.8875 28.0375 26.8125C28.2792 26.7375 28.5167 26.7167 28.75 26.75L32.2 27.45C32.4333 27.5 32.625 27.6125 32.775 27.7875C32.925 27.9625 33 28.1667 33 28.4V32.45C33 32.75 32.9 33 32.7 33.2C32.5 33.4 32.25 33.5 31.95 33.5ZM18.025 21.5L19.675 19.85L19.25 17.5H17.025C17.1083 18.1833 17.225 18.8583 17.375 19.525C17.525 20.1917 17.7417 20.85 18.025 21.5ZM26.975 30.45C27.625 30.7333 28.2875 30.9583 28.9625 31.125C29.6375 31.2917 30.3167 31.4 31 31.45V29.25L28.65 28.775L26.975 30.45Z" fill="#11505D"/>
</g>
</g>
</g>
</svg>
