<svg width="230" height="230" viewBox="0 0 230 230" fill="none" xmlns="http://www.w3.org/2000/svg">
<g id="Cart" clip-path="url(#clip0_245_6228)">
<rect width="230" height="230" fill="white"/>
<g id="Group 1710">
<g id="Group 1709">
<g id="Group 1708">
<g id="Group 1707">
<path id="Vector" d="M51.4312 93.9904V189.802C51.4312 206.291 60.3439 209.856 78.1694 208.074C95.9948 206.291 176.209 197.378 199.383 192.031L163.778 71.7559L65.6915 81.5126L51.4312 93.9904Z" stroke="#4E4E4E" stroke-miterlimit="10"/>
<path id="Vector_2" d="M79.4667 80.1546C79.4667 80.1546 77.2779 27.1439 106.69 24.4701C121.271 23.151 138.198 32.6227 140.444 73.6213L79.4667 80.1546Z" stroke="#4E4E4E" stroke-miterlimit="10"/>
<path id="Vector_3" d="M102.489 67.0888C102.489 67.0888 100.594 19.8543 128.473 17.4479C142.305 16.2536 158.936 23.5231 161.058 60.4753L102.489 67.0888Z" stroke="#4E4E4E" stroke-miterlimit="10"/>
<path id="Vector_4" d="M157.689 72.6002C157.689 72.6002 152.29 59.6601 176 58.5L226.121 184.901L199.383 192.031L163.732 72.6002H157.689Z" fill="#4E4E4E"/>
<path id="Vector_5" d="M75.496 69.9263L65.6277 81.4L178.786 69.8138L175.5 59L75.496 69.9263Z" stroke="#4E4E4E" stroke-miterlimit="10"/>
</g>
<path id="Vector 1" d="M51.4311 134.959C36.2795 140.603 4.90656 159.201 4.19354 181.305C3.48052 203.408 27.0696 190.515 38.9532 181.305C43.8004 177.548 46.6937 171.27 44.0665 164.693C43.0226 162.079 40.9451 159.947 38.3468 158.866C32.5533 156.455 26.0595 157.881 23.5 163C22.1631 165.673 20 173.5 26 178C33.1657 183.374 42.656 180.105 51.5 179C65.7603 177.217 175.318 120.693 196.709 97.5202C206.513 85.9337 225.23 71.6733 217.208 63.6519C210.791 57.2347 188.984 65.7315 178.883 70.7821" stroke="#4E4E4E"/>
</g>
<circle id="Ellipse 1" cx="196.244" cy="188.244" r="15.2444" fill="#F6BACB"/>
<path id="+" d="M200.287 190.969C200.344 191.026 200.367 191.095 200.356 191.175C200.367 191.256 200.344 191.324 200.287 191.382L198.979 192.69C198.921 192.748 198.847 192.776 198.755 192.776C198.686 192.776 198.623 192.748 198.565 192.69L196.052 190.177C195.994 190.119 195.937 190.119 195.879 190.177L193.4 192.656C193.343 192.713 193.268 192.742 193.176 192.742C193.108 192.742 193.044 192.713 192.987 192.656L191.696 191.365C191.638 191.307 191.604 191.238 191.592 191.158C191.604 191.078 191.638 191.009 191.696 190.951L194.175 188.472C194.232 188.415 194.232 188.357 194.175 188.3L191.644 185.769C191.587 185.712 191.552 185.643 191.541 185.562C191.552 185.482 191.587 185.413 191.644 185.356L192.953 184.047C193.01 183.99 193.073 183.961 193.142 183.961C193.234 183.961 193.308 183.99 193.366 184.047L195.897 186.578C195.954 186.636 196.011 186.636 196.069 186.578L198.617 184.03C198.674 183.973 198.737 183.944 198.806 183.944C198.898 183.944 198.973 183.973 199.03 184.03L200.321 185.321C200.379 185.379 200.402 185.448 200.39 185.528C200.402 185.608 200.379 185.677 200.321 185.735L197.773 188.283C197.716 188.34 197.716 188.398 197.773 188.455L200.287 190.969Z" fill="white"/>
<path id="Vector 2" d="M72.6221 87.3105L61.111 99.755V182.199C59.9703 188.214 62.7288 201.053 82.8888 196.822L165.022 187.799" stroke="#4E4E4E" stroke-dasharray="9 9"/>
<path id="Vector_6" d="M192.476 10.8032L195.301 13.1637L190.669 22.8626C190.632 22.9394 190.628 23.0276 190.656 23.1078C190.684 23.188 190.743 23.2537 190.82 23.2904L201.967 28.6135C202.043 28.6501 202.132 28.6548 202.212 28.6264C202.292 28.5981 202.358 28.539 202.394 28.4622L207.026 18.7633L210.64 19.4721C210.713 19.4694 210.785 19.4443 210.843 19.4C210.902 19.3557 210.946 19.2943 210.97 19.2243L211.714 14.9099C211.714 14.9099 211.721 14.8954 211.718 14.8847C211.794 14.1167 211.696 13.3413 211.43 12.6168C211.164 11.8924 210.737 11.2377 210.181 10.702C209.451 9.99772 208.77 9.36713 208.155 8.82792C208.119 8.79577 208.076 8.77227 208.029 8.7592C207.982 8.74612 207.933 8.74381 207.885 8.75244C207.056 8.90236 205.93 8.69171 204.874 8.18705C203.817 7.68239 202.945 6.93903 202.541 6.20011C202.517 6.15756 202.485 6.12084 202.445 6.09272C202.406 6.06461 202.36 6.04582 202.312 6.03778C201.506 5.89811 200.588 5.76336 199.582 5.64023C198.817 5.54435 198.04 5.62291 197.31 5.87001C196.58 6.11712 195.915 6.52635 195.366 7.067C195.366 7.067 195.359 7.08147 195.356 7.08871L192.467 10.3707C192.421 10.4336 192.397 10.5102 192.398 10.5884C192.4 10.6666 192.427 10.7421 192.476 10.8032ZM195.823 7.51795C196.303 7.0484 196.884 6.69333 197.521 6.47917C198.158 6.26501 198.835 6.19727 199.501 6.28101C200.438 6.39247 201.297 6.51613 202.055 6.64374C202.554 7.46131 203.468 8.22686 204.597 8.76609C205.726 9.30531 206.896 9.53525 207.846 9.40899C208.422 9.91877 209.057 10.5086 209.733 11.1672C210.217 11.6338 210.59 12.2037 210.824 12.8345C211.057 13.4652 211.145 14.1406 211.081 14.8101L210.399 18.774L207.311 18.1669L207.272 18.248C207.309 18.1712 207.314 18.083 207.285 18.0027C207.257 17.9225 207.198 17.8569 207.121 17.8202C207.044 17.7835 206.956 17.7788 206.876 17.8072C206.796 17.8356 206.73 17.8947 206.693 17.9714L201.954 27.8962L191.386 22.8496L196.126 12.9248C196.162 12.8481 196.167 12.7599 196.139 12.6796C196.11 12.5994 196.051 12.5337 195.975 12.4971C195.898 12.4604 195.81 12.4557 195.729 12.4841C195.649 12.5125 195.583 12.5715 195.547 12.6483L195.584 12.5702L193.167 10.5446L195.823 7.51795Z" fill="#4E4E4E"/>
<path id="Vector_7" d="M16.7755 86.5753L19.8155 84.4995L27.8882 91.5956C27.9521 91.6518 28.0357 91.6803 28.1206 91.6748C28.2055 91.6693 28.2848 91.6304 28.341 91.5665L36.4962 82.2889C36.5524 82.225 36.5808 82.1414 36.5754 82.0565C36.5699 81.9715 36.5309 81.8923 36.467 81.8361L28.3944 74.74L30.0596 71.4558C30.0771 71.3841 30.0722 71.3088 30.0457 71.24C30.0191 71.1712 29.972 71.1122 29.9109 71.0709L25.9619 69.1802C25.9619 69.1802 25.9499 69.1696 25.9386 69.1703C25.2204 68.8875 24.4475 68.7712 23.678 68.8302C22.9084 68.8892 22.1622 69.122 21.4956 69.5109C20.6191 70.0221 19.8273 70.505 19.141 70.9504C19.1001 70.9766 19.0658 71.0117 19.0405 71.0531C19.0152 71.0945 18.9996 71.1411 18.9949 71.1894C18.9137 72.0279 18.4046 73.0541 17.6314 73.9337C16.8583 74.8132 15.9058 75.4497 15.0847 75.6378C15.0374 75.6487 14.9932 75.6701 14.9554 75.7005C14.9176 75.7309 14.8871 75.7694 14.8664 75.8133C14.5126 76.5511 14.133 77.3985 13.7407 78.3331C13.4404 79.0429 13.3047 79.8115 13.3438 80.5813C13.3829 81.3511 13.5959 82.102 13.9666 82.7778C13.9666 82.7778 13.9787 82.7883 13.9847 82.7936L16.357 86.4659C16.4049 86.5277 16.4719 86.572 16.5476 86.5918C16.6233 86.6116 16.7034 86.6058 16.7755 86.5753ZM14.5248 82.4611C14.2038 81.8707 14.02 81.2156 13.9873 80.5445C13.9545 79.8733 14.0735 79.2034 14.3355 78.5846C14.6977 77.7133 15.0502 76.9211 15.3794 76.2258C16.3018 75.9687 17.2872 75.2971 18.1134 74.3573C18.9395 73.4175 19.4791 72.3541 19.6159 71.4063C20.2632 70.9907 21.0037 70.5395 21.8213 70.0686C22.4021 69.7293 23.052 69.5256 23.7225 69.4726C24.393 69.4196 25.0668 69.5187 25.6937 69.7624L29.3223 71.4975L27.8979 74.3037L27.9654 74.363C27.9015 74.3068 27.8179 74.2783 27.733 74.2838C27.6481 74.2892 27.5688 74.3282 27.5126 74.3921C27.4564 74.456 27.4279 74.5396 27.4334 74.6246C27.4389 74.7095 27.4779 74.7887 27.5418 74.8449L35.8024 82.1062L28.0708 90.9018L19.8102 83.6405C19.7463 83.5843 19.6627 83.5559 19.5778 83.5613C19.4929 83.5668 19.4136 83.6058 19.3574 83.6697C19.3012 83.7336 19.2727 83.8172 19.2782 83.9021C19.2837 83.987 19.3226 84.0663 19.3866 84.1225L19.3215 84.0653L16.7145 85.8404L14.5248 82.4611Z" fill="#4E4E4E"/>
</g>
<circle id="Ellipse 2" cx="54.2666" cy="33.177" r="2.3" stroke="#4E4E4E"/>
<circle id="Ellipse 5" cx="27.5112" cy="224.2" r="2.3" stroke="#4E4E4E"/>
<circle id="Ellipse 3" cx="222.267" cy="137.089" r="2.3" stroke="#4E4E4E"/>
</g>
</g>
<defs>
<clipPath id="clip0_245_6228">
<rect width="230" height="230" fill="white"/>
</clipPath>
</defs>
</svg>
