<svg width="40" height="40" viewBox="0 0 40 40" fill="none" xmlns="http://www.w3.org/2000/svg">
<g id="cart 1">
<path id="Vector" d="M35.3168 9.71667C34.7668 9.1 33.9668 8.75 33.1501 8.75H12.5668L11.9501 6.88333C11.3168 5.01667 9.58343 3.75 7.6001 3.75H5.3501C4.66676 3.75 4.1001 4.31667 4.1001 5C4.1001 5.68333 4.66676 6.25 5.3501 6.25H7.6001C8.5001 6.25 9.3001 6.81667 9.58343 7.66667L10.4501 10.2667L11.7668 22.1667C12.0168 24.5 13.9834 26.25 16.3168 26.25H30.3501C32.6834 26.25 34.6501 24.5 34.9001 22.1667L36.0334 11.9833C36.1168 11.1667 35.8668 10.3333 35.3001 9.71667H35.3168ZM32.4334 21.9C32.3168 22.95 31.4334 23.75 30.3668 23.75H16.3334C15.2668 23.75 14.3834 22.95 14.2668 21.9L13.0834 11.25H33.1501C33.3168 11.25 33.4168 11.3333 33.4668 11.3833C33.5168 11.4333 33.5834 11.55 33.5668 11.7L32.4334 21.8833V21.9Z" fill="#7EC39B"/>
<path id="Vector_2" d="M15.8333 28.75C13.7666 28.75 12.0833 30.4333 12.0833 32.5C12.0833 34.5667 13.7666 36.25 15.8333 36.25C17.8999 36.25 19.5833 34.5667 19.5833 32.5C19.5833 30.4333 17.8999 28.75 15.8333 28.75ZM15.8333 33.75C15.1499 33.75 14.5833 33.1833 14.5833 32.5C14.5833 31.8167 15.1499 31.25 15.8333 31.25C16.5166 31.25 17.0833 31.8167 17.0833 32.5C17.0833 33.1833 16.5166 33.75 15.8333 33.75Z" fill="#F6BACB"/>
<path id="Vector_3" d="M30.8333 28.75C28.7666 28.75 27.0833 30.4333 27.0833 32.5C27.0833 34.5667 28.7666 36.25 30.8333 36.25C32.8999 36.25 34.5833 34.5667 34.5833 32.5C34.5833 30.4333 32.8999 28.75 30.8333 28.75ZM30.8333 33.75C30.1499 33.75 29.5833 33.1833 29.5833 32.5C29.5833 31.8167 30.1499 31.25 30.8333 31.25C31.5166 31.25 32.0833 31.8167 32.0833 32.5C32.0833 33.1833 31.5166 33.75 30.8333 33.75Z" fill="#F6BACB"/>
</g>
</svg>
