<svg width="40" height="40" viewBox="0 0 40 40" fill="none" xmlns="http://www.w3.org/2000/svg">
<g id="click 1">
<path id="Click" d="M19.6876 38.4374C19.6267 38.4374 19.5648 38.4331 19.5026 38.424C19.0242 38.3521 18.6292 38.0103 18.4901 37.5462L10.9901 12.5462C10.8582 12.1062 10.9785 11.6287 11.3038 11.3034C11.6298 10.9781 12.1101 10.8571 12.5467 10.9896L37.5467 18.4896C38.0104 18.6287 38.3523 19.0237 38.4245 19.5021C38.496 19.9812 38.2842 20.4587 37.8813 20.7271L31.6504 24.8812L38.072 31.3034C38.5604 31.7918 38.5604 32.5828 38.072 33.0709L33.072 38.0709C32.5835 38.5593 31.7926 38.5593 31.3045 38.0709L24.8823 31.6493L20.7282 37.8803C20.4938 38.2318 20.1013 38.4374 19.6876 38.4374ZM24.6876 28.4374C25.0179 28.4374 25.3357 28.5681 25.5713 28.8037L32.1876 35.4199L35.4198 32.1874L28.8038 25.5712C28.5388 25.3062 28.407 24.9371 28.4438 24.564C28.4804 24.1918 28.6826 23.8546 28.9945 23.6471L34.2838 20.1212L14.0526 14.0518L20.122 34.2831L23.6479 28.9937C23.8554 28.6818 24.1923 28.4796 24.5648 28.4431C24.6057 28.4393 24.6467 28.4374 24.6876 28.4374Z" fill="#7EC39B"/>
<g id="Click_2">
<path d="M8.07125 6.30375C8.55969 6.79187 8.55969 7.58281 8.07125 8.07125C7.82719 8.31531 7.5075 8.4375 7.1875 8.4375C6.8675 8.4375 6.54781 8.31531 6.30375 8.07125L3.80375 5.57125C3.31531 5.08313 3.31562 4.29219 3.80375 3.80375C4.29188 3.31531 5.08281 3.31531 5.57125 3.80375L8.07125 6.30375Z" fill="#F6BACB"/>
<path d="M5.9375 10.9375C6.62781 10.9375 7.1875 11.4972 7.1875 12.1875C7.1875 12.8778 6.62781 13.4375 5.9375 13.4375H2.1875C1.49719 13.4375 0.9375 12.8778 0.9375 12.1875C0.9375 11.4972 1.49719 10.9375 2.1875 10.9375H5.9375Z" fill="#F6BACB"/>
<path d="M8.07125 18.0712L5.57125 20.5713C5.32719 20.8153 5.0075 20.9375 4.6875 20.9375C4.3675 20.9375 4.04781 20.8153 3.80375 20.5713C3.31531 20.0831 3.31531 19.2922 3.80375 18.8038L6.30375 16.3038C6.79187 15.8153 7.58281 15.8156 8.07125 16.3038C8.55969 16.7919 8.55969 17.5828 8.07125 18.0712Z" fill="#F6BACB"/>
<path d="M20.5713 5.57125L18.0712 8.07125C17.8272 8.31531 17.5075 8.4375 17.1875 8.4375C16.8675 8.4375 16.5478 8.31531 16.3038 8.07125C15.8153 7.58313 15.8153 6.79219 16.3038 6.30375L18.8038 3.80375C19.2919 3.31531 20.0828 3.31562 20.5713 3.80375C21.0597 4.29188 21.0597 5.08281 20.5713 5.57125Z" fill="#F6BACB"/>
<path d="M13.4375 2.1875V5.9375C13.4375 6.62781 12.8778 7.1875 12.1875 7.1875C11.4972 7.1875 10.9375 6.62781 10.9375 5.9375V2.1875C10.9375 1.49719 11.4972 0.9375 12.1875 0.9375C12.8778 0.9375 13.4375 1.49719 13.4375 2.1875Z" fill="#F6BACB"/>
</g>
</g>
</svg>
