<svg width="18" height="18" viewBox="0 0 18 18" fill="none" xmlns="http://www.w3.org/2000/svg">
<g id="delete">
<mask id="mask0_222_6916" style="mask-type:alpha" maskUnits="userSpaceOnUse" x="0" y="0" width="18" height="18">
<rect id="Bounding box" width="18" height="18" fill="#D9D9D9"/>
</mask>
<g mask="url(#mask0_222_6916)">
<path id="delete_2" d="M5.84998 15.2992C5.47873 15.2992 5.16091 15.167 4.89654 14.9027C4.63216 14.6383 4.49998 14.3205 4.49998 13.9492V4.94922H3.59998V3.59922H7.19998V2.69922H10.8V3.59922H14.4V4.94922H13.5V13.9411C13.5 14.3215 13.3678 14.643 13.1034 14.9055C12.839 15.168 12.5212 15.2992 12.15 15.2992H5.84998ZM12.15 4.94922H5.84998V13.9492H12.15V4.94922ZM7.19998 12.5992H8.54998V6.29922H7.19998V12.5992ZM9.44998 12.5992H10.8V6.29922H9.44998V12.5992Z" fill="#11505D"/>
</g>
</g>
</svg>
