<svg width="20" height="20" viewBox="0 0 20 20" fill="none" xmlns="http://www.w3.org/2000/svg">
<g id="delete">
<mask id="mask0_260_6533" style="mask-type:alpha" maskUnits="userSpaceOnUse" x="0" y="0" width="20" height="20">
<rect id="Bounding box" width="20" height="20" fill="#D9D9D9"/>
</mask>
<g mask="url(#mask0_260_6533)">
<path id="delete_2" d="M6.49976 17.002C6.08726 17.002 5.73413 16.8551 5.44038 16.5613C5.14663 16.2676 4.99976 15.9145 4.99976 15.502V5.50195H3.99976V4.00195H7.99976V3.00195H11.9998V4.00195H15.9998V5.50195H14.9998V15.4929C14.9998 15.9156 14.8529 16.2728 14.5591 16.5645C14.2654 16.8561 13.9123 17.002 13.4998 17.002H6.49976ZM13.4998 5.50195H6.49976V15.502H13.4998V5.50195ZM7.99976 14.002H9.49976V7.00195H7.99976V14.002ZM10.4998 14.002H11.9998V7.00195H10.4998V14.002Z" fill="#11505D"/>
</g>
</g>
</svg>
