<svg width="18" height="18" viewBox="0 0 18 18" fill="none" xmlns="http://www.w3.org/2000/svg">
<g id="edit">
<mask id="mask0_222_6913" style="mask-type:alpha" maskUnits="userSpaceOnUse" x="0" y="0" width="18" height="18">
<rect id="Bounding box" width="18" height="18" fill="#D9D9D9"/>
</mask>
<g mask="url(#mask0_222_6913)">
<path id="edit_2" d="M3.825 14.1742H4.93125L11.2313 7.87422L10.125 6.76797L3.825 13.068V14.1742ZM14.5687 6.78672L11.2125 3.43047L12.1313 2.51172C12.4438 2.19922 12.8156 2.04297 13.2469 2.04297C13.6781 2.04297 14.05 2.19922 14.3625 2.51172L15.4875 3.63672C15.7875 3.93672 15.9375 4.30859 15.9375 4.75234C15.9375 5.19609 15.7875 5.56797 15.4875 5.86797L14.5687 6.78672ZM13.4625 7.89297L5.60625 15.7492H2.25V12.393L10.1063 4.53672L13.4625 7.89297Z" fill="#11505D"/>
</g>
</g>
</svg>
