<svg width="48" height="49" viewBox="0 0 48 49" fill="none" xmlns="http://www.w3.org/2000/svg">
<g id="Group 82">
<circle id="Ellipse 2" cx="24" cy="24.5" r="24" fill="white"/>
<g id="drafts">
<mask id="mask0_161_1298" style="mask-type:alpha" maskUnits="userSpaceOnUse" x="12" y="12" width="24" height="25">
<rect id="Bounding box" x="12" y="12.5" width="24" height="24" fill="#D9D9D9"/>
</mask>
<g mask="url(#mask0_161_1298)">
<path id="drafts_2" d="M24 13.5L33.05 18.9C33.35 19.0833 33.5833 19.3333 33.75 19.65C33.9167 19.9667 34 20.3 34 20.65V31.5C34 32.05 33.8042 32.5208 33.4125 32.9125C33.0208 33.3042 32.55 33.5 32 33.5H16C15.45 33.5 14.9792 33.3042 14.5875 32.9125C14.1958 32.5208 14 32.05 14 31.5V20.65C14 20.3 14.0833 19.9667 14.25 19.65C14.4167 19.3333 14.65 19.0833 14.95 18.9L24 13.5ZM24 25.15L31.8 20.5L24 15.85L16.2 20.5L24 25.15ZM24 27.5L16 22.7V31.5H32V22.7L24 27.5Z" fill="#11505D"/>
</g>
</g>
</g>
</svg>
