<svg width="230" height="230" viewBox="0 0 230 230" fill="none" xmlns="http://www.w3.org/2000/svg">
<g id="Frame 10">
<rect width="230" height="230" fill="white"/>
<g id="Group 1725">
<g id="Group 1719" opacity="0.4">
<rect id="Rectangle 19" x="93.5792" y="84.2104" width="91.2251" height="136.29" rx="19.5" fill="white" stroke="#4E4E4E"/>
<rect id="Rectangle 20" x="105.655" y="99.9548" width="68.1208" height="4.19205" rx="2.09602" fill="#DCDCDC"/>
<rect id="Rectangle 21" x="105.655" y="109.387" width="68.1208" height="4.19205" rx="2.09602" fill="#DCDCDC"/>
<rect id="Rectangle 22" x="105.655" y="183.795" width="68.1208" height="4.19205" rx="2.09602" fill="#DCDCDC"/>
<rect id="Rectangle 25" x="105.655" y="164.931" width="68.1208" height="4.19205" rx="2.09602" fill="#DCDCDC"/>
<rect id="Rectangle 26" x="105.655" y="156.023" width="68.1208" height="4.19205" rx="2.09602" fill="#DCDCDC"/>
<rect id="Rectangle 23" x="105.655" y="202.66" width="68.1208" height="4.19205" rx="2.09602" fill="#DCDCDC"/>
<g id="Group 1713">
<rect id="Rectangle 22_2" x="105.655" y="118.819" width="10.4801" height="4.19205" rx="2.09602" fill="#DCDCDC"/>
<path id="Rectangle 23_2" d="M119.28 120.915C119.28 119.757 120.218 118.819 121.376 118.819H171.68C172.838 118.819 173.776 119.757 173.776 120.915V120.915C173.776 122.072 172.838 123.011 171.68 123.011H121.376C120.218 123.011 119.28 122.072 119.28 120.915V120.915Z" fill="#DCDCDC"/>
<path id="Rectangle 24" d="M119.28 120.915C119.28 119.757 120.218 118.819 121.376 118.819H171.68C172.838 118.819 173.776 119.757 173.776 120.915V120.915C173.776 122.072 172.838 123.011 171.68 123.011H121.376C120.218 123.011 119.28 122.072 119.28 120.915V120.915Z" fill="#DCDCDC"/>
</g>
<rect id="Rectangle 24_2" x="105.655" y="137.683" width="68.1208" height="4.19205" rx="2.09602" fill="#DCDCDC"/>
<g id="Group 1716">
<rect id="Rectangle 22_3" x="105.655" y="147.115" width="10.4801" height="4.19205" rx="2.09602" fill="#DCDCDC"/>
<path id="Rectangle 23_3" d="M119.28 149.211C119.28 148.054 120.218 147.115 121.376 147.115H171.68C172.838 147.115 173.776 148.054 173.776 149.211V149.211C173.776 150.369 172.838 151.307 171.68 151.307H121.376C120.218 151.307 119.28 150.369 119.28 149.211V149.211Z" fill="#DCDCDC"/>
<path id="Rectangle 24_3" d="M119.28 149.211C119.28 148.054 120.218 147.115 121.376 147.115H171.68C172.838 147.115 173.776 148.054 173.776 149.211V149.211C173.776 150.369 172.838 151.307 171.68 151.307H121.376C120.218 151.307 119.28 150.369 119.28 149.211V149.211Z" fill="#DCDCDC"/>
</g>
<g id="Group 1715">
<rect id="Rectangle 22_4" x="105.655" y="174.364" width="10.4801" height="4.19205" rx="2.09602" fill="#DCDCDC"/>
<path id="Rectangle 23_4" d="M119.28 176.46C119.28 175.302 120.218 174.364 121.376 174.364H171.68C172.838 174.364 173.776 175.302 173.776 176.46V176.46C173.776 177.617 172.838 178.556 171.68 178.556H121.376C120.218 178.556 119.28 177.617 119.28 176.46V176.46Z" fill="#DCDCDC"/>
<path id="Rectangle 24_4" d="M119.28 176.46C119.28 175.302 120.218 174.364 121.376 174.364H171.68C172.838 174.364 173.776 175.302 173.776 176.46V176.46C173.776 177.617 172.838 178.556 171.68 178.556H121.376C120.218 178.556 119.28 177.617 119.28 176.46V176.46Z" fill="#DCDCDC"/>
</g>
<g id="Group 1714">
<rect id="Rectangle 24_5" x="105.655" y="193.228" width="10.4801" height="4.19205" rx="2.09602" fill="#DCDCDC"/>
<rect id="Rectangle 26_2" x="118.755" y="193.228" width="18.3402" height="4.19205" rx="2.09602" fill="#DCDCDC"/>
<path id="Rectangle 25_2" d="M139.716 195.324C139.716 194.166 140.654 193.228 141.812 193.228H172.204C173.362 193.228 174.3 194.166 174.3 195.324V195.324C174.3 196.481 173.362 197.42 172.204 197.42H141.812C140.654 197.42 139.716 196.481 139.716 195.324V195.324Z" fill="#DCDCDC"/>
</g>
<g id="Group 1712">
<rect id="Rectangle 24_6" x="163.296" y="128.251" width="10.4801" height="4.19205" rx="2.09602" fill="#DCDCDC"/>
<path id="Rectangle 25_3" d="M105.655 130.347C105.655 129.189 106.594 128.251 107.751 128.251H158.056C159.214 128.251 160.152 129.189 160.152 130.347V130.347C160.152 131.505 159.214 132.443 158.056 132.443H107.751C106.594 132.443 105.655 131.505 105.655 130.347V130.347Z" fill="#DCDCDC"/>
</g>
</g>
<g id="Group 1717">
<rect id="Rectangle 19_2" x="46.8211" y="32.1604" width="114.689" height="171.219" rx="19.5" fill="white" stroke="#4E4E4E"/>
<rect id="Rectangle 20_2" x="62.0964" y="52.0371" width="85.452" height="5.25858" rx="2.62929" fill="#DCDCDC"/>
<rect id="Rectangle 21_2" x="62.0964" y="63.8694" width="85.452" height="5.25858" rx="2.62929" fill="#DCDCDC"/>
<rect id="Rectangle 22_5" x="62.0964" y="157.209" width="85.452" height="5.25858" rx="2.62929" fill="#DCDCDC"/>
<rect id="Rectangle 25_4" x="62.0964" y="133.545" width="85.452" height="5.25858" rx="2.62929" fill="#DCDCDC"/>
<rect id="Rectangle 26_3" x="62.0964" y="122.371" width="85.452" height="5.25858" rx="2.62929" fill="#DCDCDC"/>
<rect id="Rectangle 23_5" x="62.0964" y="180.873" width="85.452" height="5.25858" rx="2.62929" fill="#DCDCDC"/>
<g id="Group 1713_2">
<rect id="Rectangle 22_6" x="62.0964" y="75.7009" width="13.1465" height="5.25858" rx="2.62929" fill="#DCDCDC"/>
<path id="Rectangle 23_6" d="M79.1875 78.3302C79.1875 76.8781 80.3646 75.7009 81.8168 75.7009H144.92C146.372 75.7009 147.549 76.8781 147.549 78.3302V78.3302C147.549 79.7823 146.372 80.9595 144.92 80.9595H81.8168C80.3646 80.9595 79.1875 79.7823 79.1875 78.3302V78.3302Z" fill="#DCDCDC"/>
<path id="Rectangle 24_7" d="M79.1875 78.3302C79.1875 76.8781 80.3646 75.7009 81.8168 75.7009H144.92C146.372 75.7009 147.549 76.8781 147.549 78.3302V78.3302C147.549 79.7823 146.372 80.9595 144.92 80.9595H81.8168C80.3646 80.9595 79.1875 79.7823 79.1875 78.3302V78.3302Z" fill="#DCDCDC"/>
</g>
<rect id="Rectangle 24_8" x="62.0964" y="99.3643" width="85.452" height="5.25858" rx="2.62929" fill="#DCDCDC"/>
<g id="Group 1716_2">
<rect id="Rectangle 22_7" x="62.0964" y="111.196" width="13.1465" height="5.25858" rx="2.62929" fill="#DCDCDC"/>
<path id="Rectangle 23_7" d="M79.1875 113.826C79.1875 112.373 80.3646 111.196 81.8168 111.196H144.92C146.372 111.196 147.549 112.373 147.549 113.826V113.826C147.549 115.278 146.372 116.455 144.92 116.455H81.8168C80.3646 116.455 79.1875 115.278 79.1875 113.826V113.826Z" fill="#DCDCDC"/>
<path id="Rectangle 24_9" d="M79.1875 113.826C79.1875 112.373 80.3646 111.196 81.8168 111.196H144.92C146.372 111.196 147.549 112.373 147.549 113.826V113.826C147.549 115.278 146.372 116.455 144.92 116.455H81.8168C80.3646 116.455 79.1875 115.278 79.1875 113.826V113.826Z" fill="#DCDCDC"/>
</g>
<g id="Group 1715_2">
<rect id="Rectangle 22_8" x="62.0964" y="145.377" width="13.1465" height="5.25858" rx="2.62929" fill="#DCDCDC"/>
<path id="Rectangle 23_8" d="M79.1875 148.006C79.1875 146.554 80.3646 145.377 81.8168 145.377H144.92C146.372 145.377 147.549 146.554 147.549 148.006V148.006C147.549 149.458 146.372 150.636 144.92 150.636H81.8168C80.3646 150.636 79.1875 149.458 79.1875 148.006V148.006Z" fill="#DCDCDC"/>
<path id="Rectangle 24_10" d="M79.1875 148.006C79.1875 146.554 80.3646 145.377 81.8168 145.377H144.92C146.372 145.377 147.549 146.554 147.549 148.006V148.006C147.549 149.458 146.372 150.636 144.92 150.636H81.8168C80.3646 150.636 79.1875 149.458 79.1875 148.006V148.006Z" fill="#DCDCDC"/>
</g>
<g id="Group 1714_2">
<rect id="Rectangle 24_11" x="62.0964" y="169.041" width="13.1465" height="5.25858" rx="2.62929" fill="#DCDCDC"/>
<rect id="Rectangle 26_4" x="78.5292" y="169.041" width="23.0063" height="5.25858" rx="2.62929" fill="#DCDCDC"/>
<path id="Rectangle 25_5" d="M104.823 171.67C104.823 170.218 106 169.041 107.452 169.041H145.577C147.029 169.041 148.206 170.218 148.206 171.67V171.67C148.206 173.122 147.029 174.3 145.577 174.3H107.452C106 174.3 104.823 173.122 104.823 171.67V171.67Z" fill="#DCDCDC"/>
</g>
<g id="Group 1712_2">
<rect id="Rectangle 24_12" x="134.402" y="87.5327" width="13.1465" height="5.25858" rx="2.62929" fill="#DCDCDC"/>
<path id="Rectangle 25_6" d="M62.0964 90.162C62.0964 88.7099 63.2736 87.5327 64.7257 87.5327H127.829C129.281 87.5327 130.458 88.7099 130.458 90.162V90.162C130.458 91.6141 129.281 92.7913 127.829 92.7913H64.7257C63.2736 92.7913 62.0964 91.6141 62.0964 90.162V90.162Z" fill="#DCDCDC"/>
</g>
</g>
<path id="Vector 3" d="M153.58 133.884L146.026 141.185L153.58 152.012L173.974 167.622L178.003 158.558L153.58 133.884Z" fill="white"/>
<circle id="Ellipse 6" cx="119" cy="108" r="30" fill="white"/>
<path id="Search" d="M180.391 160.079C180.391 162.402 179.487 164.586 177.844 166.227C176.202 167.871 174.019 168.775 171.696 168.775C169.373 168.775 167.189 167.871 165.548 166.227L142.721 143.401C141.872 142.552 141.872 141.176 142.721 140.327L145.795 137.253L140.974 132.432C135.235 137.457 127.731 140.514 119.521 140.514C101.54 140.514 86.9117 125.885 86.9117 107.904C86.9117 89.9237 101.54 75.2952 119.521 75.2952C137.502 75.2952 152.13 89.9237 152.13 107.904C152.13 116.114 149.074 123.619 144.048 129.358L148.869 134.179L151.943 131.105C152.792 130.256 154.168 130.256 155.017 131.105L177.844 153.931C179.487 155.573 180.391 157.756 180.391 160.079ZM147.782 107.904C147.782 92.3215 135.105 79.6431 119.521 79.6431C103.937 79.6431 91.2595 92.3215 91.2595 107.904C91.2595 123.487 103.937 136.166 119.521 136.166C135.105 136.166 147.782 123.487 147.782 107.904ZM176.044 160.079C176.044 158.918 175.591 157.827 174.77 157.005L153.48 135.716L147.332 141.864L168.622 163.153C170.265 164.797 173.127 164.797 174.77 163.153C175.591 162.331 176.044 161.24 176.044 160.079Z" fill="#F6BACB"/>
<path id="Vector 7" d="M26.096 156.544L25.6637 147.983L18.625 152.272L26.096 156.544Z" stroke="#4E4E4E"/>
<path id="Vector 8" d="M188.243 31.6602L187.811 23.0996L180.772 27.3885L188.243 31.6602Z" stroke="#4E4E4E"/>
<g id="Group 1721">
<line id="Line 1" x1="52.3605" y1="9" x2="52.3605" y2="11.5178" stroke="#4E4E4E"/>
<line id="Line 2" x1="52.3605" y1="13.0283" x2="52.3605" y2="15.5461" stroke="#4E4E4E"/>
<line id="Line 3" x1="55.3849" y1="12.5212" x2="52.8671" y2="12.5212" stroke="#4E4E4E"/>
<line id="Line 4" x1="51.3567" y1="12.5212" x2="48.8388" y2="12.5212" stroke="#4E4E4E"/>
</g>
<g id="Group 1722">
<line id="Line 1_2" x1="6.61285" y1="63.3848" x2="6.61285" y2="67.6457" stroke="#4E4E4E"/>
<line id="Line 2_2" x1="6.61285" y1="70.2021" x2="6.61285" y2="74.4631" stroke="#4E4E4E"/>
<line id="Line 3_2" x1="12.079" y1="68.9978" x2="7.81806" y2="68.9978" stroke="#4E4E4E"/>
<line id="Line 4_2" x1="5.26091" y1="68.9978" x2="0.999995" y2="68.9978" stroke="#4E4E4E"/>
</g>
<g id="Group 1724">
<line id="Line 1_3" x1="205.52" y1="169.133" x2="205.52" y2="173.394" stroke="#4E4E4E"/>
<line id="Line 2_3" x1="205.52" y1="175.951" x2="205.52" y2="180.212" stroke="#4E4E4E"/>
<line id="Line 3_3" x1="210.986" y1="174.746" x2="206.725" y2="174.746" stroke="#4E4E4E"/>
<line id="Line 4_3" x1="204.168" y1="174.746" x2="199.907" y2="174.746" stroke="#4E4E4E"/>
</g>
<g id="Group 1723">
<line id="Line 5" x1="219.906" y1="84.186" x2="225.959" y2="90.2392" stroke="#4E4E4E"/>
<line id="Line 6" x1="225.407" y1="84.3536" x2="219.353" y2="90.4068" stroke="#4E4E4E"/>
</g>
<path id="+" d="M127.34 112.616C127.447 112.723 127.49 112.852 127.469 113.002C127.49 113.152 127.447 113.28 127.34 113.388L124.897 115.831C124.79 115.938 124.65 115.992 124.479 115.992C124.35 115.992 124.232 115.938 124.125 115.831L119.431 111.137C119.324 111.03 119.217 111.03 119.109 111.137L114.48 115.767C114.372 115.874 114.233 115.928 114.062 115.928C113.933 115.928 113.815 115.874 113.708 115.767L111.297 113.355C111.189 113.248 111.125 113.12 111.104 112.97C111.125 112.82 111.189 112.691 111.297 112.584L115.926 107.954C116.034 107.847 116.034 107.74 115.926 107.632L111.2 102.906C111.093 102.799 111.029 102.67 111.007 102.52C111.029 102.37 111.093 102.242 111.2 102.134L113.644 99.6909C113.751 99.5837 113.869 99.5301 113.997 99.5301C114.169 99.5301 114.308 99.5837 114.415 99.6909L119.142 104.417C119.249 104.524 119.356 104.524 119.463 104.417L124.222 99.6587C124.329 99.5515 124.447 99.498 124.575 99.498C124.747 99.498 124.886 99.5515 124.993 99.6587L127.405 102.07C127.512 102.177 127.555 102.306 127.533 102.456C127.555 102.606 127.512 102.735 127.405 102.842L122.646 107.6C122.539 107.707 122.539 107.815 122.646 107.922L127.34 112.616Z" fill="#4E4E4E"/>
</g>
</g>
</svg>
