<svg width="380" height="380" viewBox="0 0 380 380" fill="none" xmlns="http://www.w3.org/2000/svg">
<rect width="380" height="380" fill="white"/>
<circle cx="245.47" cy="139.735" r="124.235" fill="white" stroke="#DFDFDF" stroke-dasharray="7 7"/>
<circle cx="97.1875" cy="277.813" r="86.6875" fill="white" stroke="#DFDFDF" stroke-dasharray="7 7"/>
<path d="M235.631 287.305L248.018 301.38V134.642L203.469 90.0938H91.4619V300.744H92.0983L102.06 288.015C102.834 287.025 104.319 286.987 105.144 287.935L114.74 298.971C115.548 299.9 116.997 299.885 117.786 298.939L127.479 287.306C128.277 286.349 129.746 286.346 130.547 287.3L140.721 299.412C141.56 300.411 143.114 300.353 143.876 299.295L152.396 287.461C153.136 286.433 154.633 286.343 155.491 287.276L166.849 299.621C167.692 300.538 169.159 300.469 169.913 299.477L179.044 287.462C179.82 286.441 181.343 286.404 182.168 287.386L192.354 299.512C193.166 300.478 194.659 300.461 195.447 299.475L205.226 287.251C205.981 286.307 207.394 286.244 208.231 287.115L220.305 299.693C221.156 300.579 222.597 300.496 223.34 299.518L232.538 287.416C233.302 286.41 234.797 286.356 235.631 287.305Z" fill="white" stroke="#4E4E4E"/>
<path d="M203.968 133.506V91.3009L246.173 133.506H203.968Z" fill="#EEEEEE" stroke="#4E4E4E"/>
<path d="M145.992 201.939C146.222 201.939 146.407 202.031 146.545 202.215C146.729 202.353 146.821 202.537 146.821 202.768V209.744C146.821 209.975 146.729 210.182 146.545 210.366C146.407 210.504 146.222 210.573 145.992 210.573H143.022C142.792 210.573 142.677 210.688 142.677 210.919V222.178C142.677 222.408 142.584 222.615 142.4 222.8C142.262 222.938 142.078 223.007 141.848 223.007H133.766C133.536 223.007 133.328 222.938 133.144 222.8C133.006 222.615 132.937 222.408 132.937 222.178V210.919C132.937 210.688 132.822 210.573 132.592 210.573H111.386C111.155 210.573 110.948 210.504 110.764 210.366C110.626 210.182 110.557 209.975 110.557 209.744V204.218C110.557 203.942 110.626 203.597 110.764 203.182L123.197 175.276C123.382 174.861 123.704 174.654 124.164 174.654H132.799C133.121 174.654 133.328 174.746 133.421 174.93C133.559 175.069 133.559 175.299 133.421 175.621L121.885 201.524C121.839 201.616 121.839 201.709 121.885 201.801C121.931 201.893 122 201.939 122.092 201.939H132.592C132.822 201.939 132.937 201.824 132.937 201.593V193.028C132.937 192.798 133.006 192.614 133.144 192.476C133.328 192.291 133.536 192.199 133.766 192.199H141.848C142.078 192.199 142.262 192.291 142.4 192.476C142.584 192.614 142.677 192.798 142.677 193.028V201.593C142.677 201.824 142.792 201.939 143.022 201.939H145.992Z" fill="#F6BACB"/>
<path d="M169.717 223.767C164.652 223.767 160.645 222.362 157.698 219.553C154.751 216.698 153.277 212.83 153.277 207.948V189.713C153.277 184.923 154.751 181.124 157.698 178.315C160.645 175.506 164.652 174.102 169.717 174.102C174.783 174.102 178.789 175.506 181.736 178.315C184.73 181.124 186.226 184.923 186.226 189.713V207.948C186.226 212.83 184.73 216.698 181.736 219.553C178.789 222.362 174.783 223.767 169.717 223.767ZM169.717 215.408C171.79 215.408 173.424 214.787 174.622 213.543C175.865 212.254 176.487 210.55 176.487 208.432V189.436C176.487 187.318 175.865 185.637 174.622 184.394C173.424 183.104 171.79 182.46 169.717 182.46C167.691 182.46 166.056 183.104 164.813 184.394C163.616 185.637 163.017 187.318 163.017 189.436V208.432C163.017 210.55 163.616 212.254 164.813 213.543C166.056 214.787 167.691 215.408 169.717 215.408Z" fill="#F6BACB"/>
<path d="M227.209 201.939C227.44 201.939 227.624 202.031 227.762 202.215C227.946 202.353 228.038 202.537 228.038 202.768V209.744C228.038 209.975 227.946 210.182 227.762 210.366C227.624 210.504 227.44 210.573 227.209 210.573H224.239C224.009 210.573 223.894 210.688 223.894 210.919V222.178C223.894 222.408 223.802 222.615 223.618 222.8C223.479 222.938 223.295 223.007 223.065 223.007H214.983C214.753 223.007 214.546 222.938 214.361 222.8C214.223 222.615 214.154 222.408 214.154 222.178V210.919C214.154 210.688 214.039 210.573 213.809 210.573H192.603C192.373 210.573 192.165 210.504 191.981 210.366C191.843 210.182 191.774 209.975 191.774 209.744V204.218C191.774 203.942 191.843 203.597 191.981 203.182L204.415 175.276C204.599 174.861 204.921 174.654 205.382 174.654H214.016C214.338 174.654 214.546 174.746 214.638 174.93C214.776 175.069 214.776 175.299 214.638 175.621L203.102 201.524C203.056 201.616 203.056 201.709 203.102 201.801C203.148 201.893 203.217 201.939 203.309 201.939H213.809C214.039 201.939 214.154 201.824 214.154 201.593V193.028C214.154 192.798 214.223 192.614 214.361 192.476C214.546 192.291 214.753 192.199 214.983 192.199H223.065C223.295 192.199 223.479 192.291 223.618 192.476C223.802 192.614 223.894 192.798 223.894 193.028V201.593C223.894 201.824 224.009 201.939 224.239 201.939H227.209Z" fill="#F6BACB"/>
<ellipse cx="91.0002" cy="285.5" rx="27" ry="27.5" fill="white"/>
<path d="M147.33 332.299C147.33 334.444 146.495 336.461 144.977 337.977C143.461 339.495 141.444 340.33 139.299 340.33C137.154 340.33 135.137 339.495 133.622 337.977L112.541 316.896C111.757 316.112 111.757 314.841 112.541 314.057L115.38 311.219L110.928 306.767C105.628 311.407 98.6972 314.23 91.1153 314.23C74.5098 314.23 61.0002 300.72 61.0002 284.115C61.0002 267.51 74.5098 254 91.1153 254C107.721 254 121.23 267.51 121.23 284.115C121.23 291.697 118.407 298.627 113.767 303.928L118.219 308.38L121.058 305.541C121.842 304.757 123.112 304.757 123.896 305.541L144.977 326.621C146.495 328.137 147.33 330.154 147.33 332.299ZM117.215 284.115C117.215 269.724 105.507 258.015 91.1153 258.015C76.7233 258.015 65.0156 269.724 65.0156 284.115C65.0156 298.506 76.7233 310.215 91.1153 310.215C105.507 310.215 117.215 298.506 117.215 284.115ZM143.315 332.299C143.315 331.227 142.897 330.219 142.138 329.46L122.477 309.799L116.799 315.477L136.46 335.138C137.978 336.656 140.621 336.656 142.138 335.138C142.897 334.379 143.315 333.371 143.315 332.299Z" fill="#4E4E4E"/>
<line x1="301.748" y1="342.031" x2="301.748" y2="346.292" stroke="#4E4E4E"/>
<line x1="301.748" y1="348.848" x2="301.748" y2="353.109" stroke="#4E4E4E"/>
<line x1="307.214" y1="347.645" x2="302.953" y2="347.645" stroke="#4E4E4E"/>
<line x1="300.396" y1="347.645" x2="296.136" y2="347.645" stroke="#4E4E4E"/>
<line x1="51.7483" y1="82.0312" x2="51.7483" y2="86.2922" stroke="#4E4E4E"/>
<line x1="51.7483" y1="88.8477" x2="51.7483" y2="93.1086" stroke="#4E4E4E"/>
<line x1="57.2144" y1="87.6445" x2="52.9534" y2="87.6445" stroke="#4E4E4E"/>
<line x1="50.3965" y1="87.6445" x2="46.1356" y2="87.6445" stroke="#4E4E4E"/>
<line x1="356.134" y1="257.088" x2="362.187" y2="263.141" stroke="#4E4E4E"/>
<line x1="361.635" y1="257.252" x2="355.582" y2="263.305" stroke="#4E4E4E"/>
<circle cx="68.5" cy="182.5" r="2.25" stroke="#4E4E4E" stroke-width="0.5"/>
<circle cx="147.5" cy="27.5" r="2.25" stroke="#4E4E4E" stroke-width="0.5"/>
<circle cx="27.5" cy="354.5" r="2.25" stroke="#4E4E4E" stroke-width="0.5"/>
<circle cx="377.5" cy="88.5" r="2.25" stroke="#4E4E4E" stroke-width="0.5"/>
<path d="M17.6522 141.091L2.12082 140.927L9.45459 155.053L17.6522 141.091Z" stroke="#4E4E4E"/>
<path d="M10.0306 146.248C9.99502 146.297 9.9502 146.301 9.89616 146.262L6.21661 143.671C6.16257 143.632 6.15334 143.588 6.18892 143.539L6.59454 142.984C6.63012 142.936 6.67493 142.931 6.72897 142.971L10.3178 145.685C10.3718 145.725 10.3811 145.769 10.3455 145.818L10.0306 146.248ZM12.0203 147.423C11.9207 147.56 11.7902 147.636 11.6289 147.652C11.4676 147.669 11.3113 147.622 11.16 147.511C11.0086 147.4 10.9164 147.266 10.8831 147.107C10.8499 146.948 10.8831 146.801 10.9827 146.664C11.0824 146.528 11.2128 146.452 11.3741 146.436C11.5355 146.419 11.6918 146.466 11.8431 146.577C11.9944 146.688 12.0867 146.822 12.1199 146.981C12.1531 147.14 12.1199 147.287 12.0203 147.423Z" fill="#4E4E4E"/>
<path d="M105.377 291.742L90.233 269.17L77.3543 292.474L105.377 291.742Z" stroke="#4E4E4E" stroke-width="3"/>
<path d="M91.4515 278.773L91.2435 285.052L89.7095 285.052L89.4885 278.773L91.4515 278.773ZM90.5155 288.094C90.1862 288.094 89.9132 287.995 89.6965 287.795C89.4885 287.587 89.3845 287.332 89.3845 287.028C89.3845 286.725 89.4885 286.474 89.6965 286.274C89.9132 286.066 90.1862 285.962 90.5155 285.962C90.8362 285.962 91.1005 286.066 91.3085 286.274C91.5165 286.474 91.6205 286.725 91.6205 287.028C91.6205 287.332 91.5165 287.587 91.3085 287.795C91.1005 287.995 90.8362 288.094 90.5155 288.094Z" fill="#4E4E4E"/>
</svg>
