<svg width="16" height="16" viewBox="0 0 16 16" fill="none" xmlns="http://www.w3.org/2000/svg">
<g id="facebook 1">
<g id="_x30_1._Facebook">
<path id="Icon_11_" d="M6.46986 8.82651C6.41962 8.82651 5.3657 8.82683 4.87962 8.82635C4.62938 8.82619 4.5401 8.73627 4.5401 8.48443C4.53978 7.83755 4.53962 7.19067 4.5401 6.54379C4.54026 6.29515 4.63466 6.20027 4.8817 6.20011C5.36778 6.19979 6.41594 6.19995 6.46986 6.19995C6.46986 6.15563 6.4697 5.22171 6.46986 4.79163C6.47018 4.15579 6.58362 3.54715 6.90666 2.98987C7.23738 2.41947 7.71866 2.02875 8.33546 1.80283C8.7305 1.65803 9.14058 1.60027 9.55978 1.59995C10.0843 1.59963 10.6087 1.60011 11.1334 1.60107C11.3588 1.60139 11.4588 1.70107 11.4593 1.92811C11.4603 2.53659 11.4603 3.14507 11.4593 3.75339C11.459 3.98283 11.3631 4.07499 11.1326 4.07755C10.7027 4.08219 10.2724 4.07931 9.84298 4.09659C9.40922 4.09659 9.18106 4.30843 9.18106 4.75739C9.17066 5.23227 9.17674 5.70763 9.17674 6.19979C9.21738 6.19979 10.4518 6.19963 11.0287 6.19979C11.2908 6.19979 11.3804 6.28987 11.3804 6.55339C11.3804 7.19675 11.3803 7.84027 11.3798 8.48363C11.3796 8.74331 11.2955 8.82619 11.0318 8.82635C10.4548 8.82667 9.22522 8.82651 9.17146 8.82651V14.0337C9.17146 14.3113 9.0841 14.3998 8.81018 14.3998C8.14234 14.3998 7.47434 14.4 6.8065 14.3998C6.56442 14.3998 6.47002 14.3057 6.47002 14.0636C6.46986 12.3678 6.46986 8.88603 6.46986 8.82651Z" fill="#3D6AD6"/>
</g>
</g>
</svg>
