<svg width="64" height="64" viewBox="0 0 64 64" fill="none" xmlns="http://www.w3.org/2000/svg">
<g id="ICON">
<g id="Layer_4">
<g id="Group">
<path id="Vector" d="M49.6853 7.40535C48.4113 6.13002 46.644 5.39935 44.838 5.39935H42.2393C41.2006 5.39935 40.2533 6.06602 39.94 7.00735C38.7526 10.4194 35.528 12.7107 31.9133 12.7107C28.2953 12.7107 25.0753 10.4207 23.9053 7.01935C23.582 6.05069 22.6513 5.39935 21.5873 5.39935H20.214C18.5753 5.39935 16.9833 5.99335 15.6473 7.15335L5.99331 17.6554C5.50931 18.1827 5.27331 18.8887 5.34664 19.5907C5.41864 20.29 5.79064 20.928 6.32197 21.308L16.108 29.1367V45.452C16.108 46.7507 17.1653 47.808 18.464 47.808H23.8493C24.4066 47.808 24.8593 47.356 24.8593 46.798C24.8593 46.24 24.4073 45.788 23.8493 45.788H18.464C18.282 45.788 18.1273 45.634 18.1273 45.4514V16.642C18.1273 16.0847 17.6753 15.632 17.1173 15.632C16.5593 15.632 16.1073 16.084 16.1073 16.642V26.55L7.54064 19.6987C7.39664 19.5947 7.36264 19.4567 7.35464 19.3834C7.34664 19.3087 7.35331 19.16 7.48064 19.022L17.0493 8.60269C17.934 7.84002 19.058 7.41935 20.2133 7.41935H21.5866C21.7706 7.41935 21.9426 7.52202 21.9913 7.66802C23.4453 11.892 27.4333 14.7307 31.9126 14.7307C36.3853 14.7307 40.378 11.8934 41.8506 7.65869C41.8953 7.52469 42.0653 7.41935 42.2386 7.41935H44.8373C46.112 7.41935 47.3586 7.93469 48.1853 8.75535L56.5446 19.092C56.702 19.288 56.6746 19.5614 56.47 19.7387L47.746 27.5374V16.642C47.746 16.0847 47.294 15.632 46.736 15.632C46.1786 15.632 45.726 16.084 45.726 16.642V31.9894C45.726 32.5467 46.178 32.9994 46.736 32.9994C47.2933 32.9994 47.746 32.5474 47.746 31.9894V30.2467L57.8046 21.2554C58.8193 20.376 58.958 18.8694 58.1166 17.824L49.6853 7.40535Z" fill="#FFEB7B"/>
<path id="Vector_2" d="M36.586 39.814C35.1386 36.3234 32.0799 33.7107 28.4046 32.826C27.5326 32.612 26.5699 33.014 26.1039 33.778C24.1359 37.0087 23.824 41.0187 25.272 44.5067C26.7186 47.996 29.7773 50.6087 33.4553 51.4974C33.6146 51.5354 33.7786 51.5554 33.9433 51.5554C34.218 51.5554 34.766 51.3707 34.7726 51.3674C35.1726 51.196 35.5233 50.92 35.7533 50.5427C37.722 47.3147 38.0333 43.3034 36.586 39.814ZM34.6046 48.3867L31.1726 40.114C30.9599 39.5987 30.3679 39.3554 29.8533 39.5687C29.3386 39.7814 29.094 40.372 29.308 40.8874L32.74 49.1607C30.226 48.2027 28.1786 46.2434 27.1373 43.734C25.936 40.8387 26.1953 37.5114 27.9306 34.79C30.9806 35.5247 33.52 37.6927 34.7206 40.588C35.762 43.098 35.702 45.9314 34.6046 48.3867Z" fill="#FFEB7B"/>
<path id="Vector_3" d="M56.2394 32.8314C55.4334 32.7054 54.6114 32.642 53.7954 32.642C49.5954 32.642 45.6474 34.2774 42.6774 37.2474C39.1367 40.7867 37.4867 45.8567 38.2627 50.8094C38.2921 50.9954 38.3667 51.164 38.4354 51.3347C37.5881 52.2807 37.1147 53.5194 37.1594 54.7947C37.2067 56.1594 37.8254 57.4574 38.8567 58.354C39.0481 58.5194 39.2841 58.6014 39.5187 58.6014C39.8007 58.6014 40.0814 58.484 40.2814 58.254C40.6474 57.8334 40.6027 57.1954 40.1814 56.8287C39.5627 56.2907 39.2061 55.5427 39.1774 54.724C39.1514 53.9867 39.4074 53.2967 39.8794 52.742C40.0341 52.8 40.1834 52.8707 40.3487 52.8967C41.1561 53.0227 41.9787 53.0874 42.7961 53.0874C46.9947 53.0874 50.9421 51.452 53.9114 48.482C57.4514 44.9427 59.1021 39.8727 58.3254 34.92C58.1601 33.8587 57.3021 33 56.2394 32.8314ZM52.4827 47.0534C49.8954 49.642 46.4547 51.0674 42.7954 51.0674C42.3901 51.0674 41.9834 51.044 41.5781 51.008L50.7307 41.8547C51.1254 41.46 51.1254 40.8214 50.7307 40.4267C50.3361 40.032 49.6967 40.032 49.3021 40.4267L40.1674 49.5634C39.8201 45.5507 41.2407 41.5394 44.1047 38.676C46.6934 36.0874 50.1347 34.662 53.7954 34.662C54.5074 34.662 55.2247 34.7174 55.9261 34.8274C56.1261 34.8587 56.3001 35.0327 56.3307 35.232C57.0074 39.5487 55.5694 43.9674 52.4827 47.0534Z" fill="#FFEB7B"/>
<path id="Vector_4" d="M37.4626 22.2507H41.5013C42.0593 22.2507 42.5113 21.7987 42.5113 21.2407C42.5113 20.6834 42.06 20.2307 41.5013 20.2307H37.4626C36.9053 20.2307 36.4526 20.6827 36.4526 21.2407C36.4526 21.798 36.9053 22.2507 37.4626 22.2507Z" fill="#FFEB7B"/>
</g>
</g>
</g>
</svg>
