<svg width="24" height="24" viewBox="0 0 24 24" fill="none" xmlns="http://www.w3.org/2000/svg">
<g id="instagram">
<g id="Group">
<path id="Vector" d="M15.0796 3.94238H8.92026C6.17339 3.94238 3.94214 6.17363 3.94214 8.92051V15.0799C3.94214 17.8268 6.17339 20.058 8.92026 20.058H15.0796C17.8265 20.058 20.0578 17.8268 20.0578 15.0799V8.92051C20.0578 6.17832 17.8218 3.94238 15.0796 3.94238ZM18.2625 15.0799C18.2625 16.833 16.8328 18.2627 15.0796 18.2627H8.92026C7.16714 18.2627 5.73745 16.833 5.73745 15.0799V8.92051C5.73745 7.16738 7.16714 5.7377 8.92026 5.7377H15.0796C16.8328 5.7377 18.2625 7.16738 18.2625 8.92051V15.0799Z" fill="#11505D"/>
<path id="Vector_2" d="M12 7.87988C9.7312 7.87988 7.87964 9.72676 7.87964 12.0002C7.87964 14.2736 9.72651 16.1205 12 16.1205C14.2734 16.1205 16.1203 14.2736 16.1203 12.0002C16.1203 9.72676 14.2687 7.87988 12 7.87988ZM12 14.5033C10.6218 14.5033 9.49683 13.383 9.49683 12.0002C9.49683 10.6221 10.6171 9.49707 12 9.49707C13.3781 9.49707 14.5031 10.6174 14.5031 12.0002C14.5031 13.3783 13.3781 14.5033 12 14.5033Z" fill="#11505D"/>
<path id="Vector_3" d="M16.4353 8.33239C16.816 8.27068 17.0746 7.91201 17.0129 7.53129C16.9512 7.15057 16.5925 6.89196 16.2118 6.95368C15.8311 7.0154 15.5725 7.37407 15.6342 7.75479C15.6959 8.13551 16.0546 8.39411 16.4353 8.33239Z" fill="#11505D"/>
</g>
</g>
</svg>
