<svg width="24" height="24" viewBox="0 0 24 24" fill="none" xmlns="http://www.w3.org/2000/svg">
<g id="linkedin">
<g id="Group">
<path id="Vector" d="M4.03589 9.28125H7.8937V20.0578H4.03589V9.28125Z" fill="#11505D"/>
<path id="Vector_2" d="M16.0686 9.26709C13.317 9.26709 12.8577 10.7765 12.8577 10.7765V9.28115H9.8811V20.0577H12.8905C12.8905 20.0577 12.8905 14.7233 12.8905 13.8421C12.8905 12.9608 13.4014 11.7983 15.0233 11.7983C16.6452 11.7983 16.8374 13.3827 16.8186 13.5749C16.7999 13.7671 16.7811 20.053 16.7811 20.053H19.9592C19.9592 20.053 19.9592 13.9218 19.9592 12.5765C19.9639 10.153 18.3374 9.26709 16.0686 9.26709Z" fill="#11505D"/>
<path id="Vector_3" d="M5.96245 7.7999C7.02646 7.7999 7.88901 6.93735 7.88901 5.87334C7.88901 4.80933 7.02646 3.94678 5.96245 3.94678C4.89844 3.94678 4.03589 4.80933 4.03589 5.87334C4.03589 6.93735 4.89844 7.7999 5.96245 7.7999Z" fill="#11505D"/>
</g>
</g>
</svg>
