<svg width="48" height="48" viewBox="0 0 48 48" fill="none" xmlns="http://www.w3.org/2000/svg">
<g id="Group 82">
<circle id="Ellipse 2" cx="24" cy="24" r="24" fill="white"/>
<g id="Group 1">
<path id="Vector" d="M24 14C20.13 14 17 17.13 17 21C17 26.25 24 34 24 34C24 34 31 26.25 31 21C31 17.13 27.87 14 24 14ZM19 21C19 18.24 21.24 16 24 16C26.76 16 29 18.24 29 21C29 23.88 26.12 28.19 24 30.88C21.92 28.21 19 23.85 19 21Z" fill="#11505D"/>
<path id="Vector_2" d="M24 23.5C25.3807 23.5 26.5 22.3807 26.5 21C26.5 19.6193 25.3807 18.5 24 18.5C22.6193 18.5 21.5 19.6193 21.5 21C21.5 22.3807 22.6193 23.5 24 23.5Z" fill="#11505D"/>
</g>
</g>
</svg>
