<svg width="80" height="80" viewBox="0 0 80 80" fill="none" xmlns="http://www.w3.org/2000/svg">
<g id="LOGO">
<path id="Vector" d="M23.7596 42.6402C23.5196 42.4002 23.1196 42.2402 22.7196 42.2402H21.1996C21.1196 42.2402 21.1196 42.2402 21.1196 42.3202V45.2002C21.1196 45.2802 21.1196 45.2802 21.1996 45.2802H22.7196C23.1196 45.2802 23.5196 45.1202 23.7596 44.8802C23.9996 44.6402 24.1596 44.2402 24.1596 43.7602C24.0796 43.2802 23.9996 42.8802 23.7596 42.6402Z" fill="black"/>
<path id="Vector_2" d="M35.5999 60.48L34.3999 65.36V65.44H34.4799H36.7199H36.7999V65.36L35.5999 60.48C35.6799 60.48 35.6799 60.48 35.5999 60.48Z" fill="black"/>
<path id="Vector_3" d="M12.3202 45.4402H13.7602C14.2402 45.4402 14.5602 45.2802 14.8002 45.0402C15.0402 44.7202 15.2002 44.4002 15.2002 43.8402C15.2002 43.3602 15.0402 42.9602 14.8002 42.6402C14.5602 42.3202 14.1602 42.1602 13.7602 42.1602H12.3202C12.2402 42.1602 12.2402 42.1602 12.2402 42.2402V45.2802C12.2402 45.4402 12.2402 45.4402 12.3202 45.4402Z" fill="black"/>
<path id="Vector_4" d="M45.2799 59.3599H43.7599C43.6799 59.3599 43.6799 59.3599 43.6799 59.4399V62.3199C43.6799 62.3999 43.6799 62.3999 43.7599 62.3999H45.2799C45.6799 62.3999 46.0799 62.2399 46.3199 61.9999C46.5599 61.7599 46.7199 61.3599 46.7199 60.8799C46.7199 60.3999 46.5599 59.9999 46.3199 59.7599C46.0799 59.5199 45.6799 59.3599 45.2799 59.3599Z" fill="black"/>
<path id="Vector_5" d="M31.52 50.1601C32 50.1601 32.4 50.0001 32.64 49.6801C32.96 49.3601 33.04 48.9601 33.04 48.4801V43.7601C33.04 43.2801 32.88 42.8001 32.64 42.5601C32.32 42.2401 32 42.0801 31.52 42.0801C31.04 42.0801 30.72 42.2401 30.4 42.5601C30.08 42.8801 30 43.2801 30 43.7601V48.4801C30 48.9601 30.16 49.3601 30.4 49.6801C30.72 50.0001 31.12 50.1601 31.52 50.1601Z" fill="black"/>
<path id="Vector_6" d="M65.92 0H14.08C6.32 0 0 6.32 0 14.08V65.84C0 73.68 6.32 80 14.08 80H80V14.08C80 6.32 73.68 0 65.92 0ZM57.44 40.32C57.44 40.24 57.44 40.24 57.52 40.16C57.52 40.16 57.6 40.08 57.68 40.08H64.56C64.64 40.08 64.64 40.08 64.72 40.16C64.72 40.16 64.8 40.24 64.8 40.32V42C64.8 42.08 64.8 42.08 64.72 42.16C64.64 42.24 64.64 42.24 64.56 42.24H60C59.92 42.24 59.92 42.24 59.92 42.32V44.96C59.92 45.04 59.92 45.04 60 45.04H62.88C62.96 45.04 62.96 45.04 63.04 45.12C63.04 45.2 63.12 45.2 63.12 45.28V46.96C63.12 47.04 63.12 47.04 63.04 47.12C62.96 47.12 62.96 47.2 62.88 47.2H60C59.92 47.2 59.92 47.2 59.92 47.28V50C59.92 50.08 59.92 50.08 60 50.08H64.56C64.64 50.08 64.64 50.08 64.72 50.16C64.72 50.24 64.8 50.24 64.8 50.32V52C64.8 52.08 64.8 52.08 64.72 52.16C64.64 52.24 64.64 52.24 64.56 52.24H57.68C57.6 52.24 57.6 52.24 57.52 52.16C57.44 52.16 57.44 52.08 57.44 52V40.32ZM45.12 40.32C45.12 40.24 45.12 40.24 45.2 40.16C45.2 40.16 45.28 40.08 45.36 40.08H47.36C47.44 40.08 47.44 40.08 47.52 40.16C47.52 40.16 47.6 40.24 47.6 40.32V51.84C47.6 51.92 47.6 51.92 47.52 52C47.44 52.08 47.44 52.08 47.36 52.08H45.36C45.28 52.08 45.28 52.08 45.2 52C45.12 52 45.12 51.92 45.12 51.84V40.32ZM36.96 40.32C36.96 40.24 36.96 40.24 37.04 40.16C37.04 40.16 37.12 40.08 37.2 40.08H44C44.08 40.08 44.08 40.08 44.16 40.16C44.24 40.16 44.24 40.24 44.24 40.32V42C44.24 42.08 44.24 42.08 44.16 42.16C44.16 42.24 44.08 42.24 44 42.24H39.44C39.36 42.24 39.36 42.24 39.36 42.32V44.96C39.36 45.04 39.36 45.04 39.44 45.04H42.24C42.32 45.04 42.32 45.04 42.4 45.12C42.4 45.2 42.48 45.2 42.48 45.28V46.96C42.48 47.04 42.48 47.04 42.4 47.12C42.4 47.12 42.32 47.2 42.24 47.2H39.44C39.36 47.2 39.36 47.2 39.36 47.28V52C39.36 52.08 39.36 52.08 39.28 52.16C39.2 52.24 39.2 52.24 39.12 52.24H37.12C37.04 52.24 37.04 52.24 36.96 52.16C36.88 52.16 36.88 52.08 36.88 52V40.32H36.96ZM27.6 43.84C27.6 43.04 27.76 42.4 28.08 41.84C28.4 41.28 28.88 40.8 29.44 40.48C30 40.16 30.72 40 31.52 40C32.32 40 32.96 40.16 33.6 40.48C34.24 40.8 34.64 41.28 34.96 41.84C35.28 42.4 35.44 43.12 35.44 43.84V48.4C35.44 49.2 35.28 49.84 34.96 50.4C34.64 50.96 34.16 51.44 33.6 51.76C32.96 52.08 32.32 52.24 31.52 52.24C30.72 52.24 30.08 52.08 29.44 51.76C28.88 51.44 28.4 50.96 28.08 50.4C27.76 49.84 27.6 49.12 27.6 48.4V43.84ZM9.84 40.32C9.84 40.24 9.84 40.24 9.92 40.16C9.92 40.16 10 40.08 10.08 40.08H14.24C14.96 40.08 15.52 40.24 16.08 40.56C16.64 40.88 17.04 41.28 17.28 41.84C17.6 42.4 17.68 43.04 17.68 43.76C17.68 44.48 17.52 45.12 17.28 45.6C16.96 46.16 16.56 46.56 16.08 46.88C15.52 47.2 14.96 47.36 14.24 47.36H12.4C12.32 47.36 12.32 47.36 12.32 47.44V51.84C12.32 51.92 12.32 51.92 12.24 52C12.16 52.08 12.16 52.08 12.08 52.08H10.08C10 52.08 10 52.08 9.92 52C9.84 52 9.84 51.92 9.84 51.84V40.32ZM19.36 69.04C19.36 69.2 19.28 69.2 19.12 69.2H17.2C17.04 69.2 17.04 69.12 16.96 69.04L15.6 62.16C15.6 62.16 15.6 62.08 15.52 62.08C15.52 62.08 15.52 62.08 15.44 62.16L14.16 69.04C14.16 69.2 14.08 69.2 13.92 69.2H12.08C12 69.2 11.92 69.12 11.84 69.04L9.2 57.52V57.44C9.2 57.36 9.28 57.28 9.36 57.28H11.44C11.6 57.28 11.68 57.36 11.68 57.44L12.96 64C12.96 64 12.96 64.08 13.04 64.08C13.12 64.08 13.04 64.08 13.12 64L14.4 57.44C14.4 57.28 14.48 57.28 14.64 57.28H16.56C16.72 57.28 16.72 57.36 16.8 57.44L18.16 64C18.16 64 18.16 64.08 18.24 64.08C18.24 64.08 18.24 64.08 18.32 64L19.52 57.44C19.52 57.28 19.6 57.28 19.76 57.28H21.76C21.92 57.28 22 57.36 21.92 57.52L19.36 69.04ZM22.32 47.12H21.28C21.2 47.12 21.2 47.12 21.2 47.2V51.84C21.2 51.92 21.2 51.92 21.12 52C21.04 52.08 21.04 52.08 20.96 52.08H18.96C18.88 52.08 18.88 52.08 18.8 52C18.72 52 18.72 51.92 18.72 51.84V40.32C18.72 40.24 18.72 40.24 18.8 40.16C18.8 40.16 18.88 40.08 18.96 40.08H23.12C23.76 40.08 24.4 40.24 24.88 40.56C25.44 40.88 25.84 41.28 26.08 41.84C26.4 42.4 26.48 43.04 26.48 43.68C26.48 44.4 26.32 45.04 26 45.6C25.68 46.16 25.2 46.56 24.64 46.8C24.56 46.8 24.56 46.88 24.64 46.88L26.56 51.76V51.84C26.56 51.92 26.48 52 26.4 52H24.32C24.16 52 24.08 51.92 24.08 51.84L22.4 47.2C22.32 47.12 22.32 47.12 22.32 47.12ZM30.08 59.12C30.08 59.2 30.08 59.2 30 59.28C29.92 59.36 29.92 59.36 29.84 59.36H25.28C25.2 59.36 25.2 59.36 25.2 59.44V62.08C25.2 62.16 25.2 62.16 25.28 62.16H28.16C28.24 62.16 28.24 62.16 28.32 62.24C28.32 62.32 28.4 62.32 28.4 62.4V64C28.4 64.08 28.4 64.08 28.32 64.16C28.24 64.16 28.24 64.24 28.16 64.24H25.28C25.2 64.24 25.2 64.24 25.2 64.32V67.04C25.2 67.12 25.2 67.12 25.28 67.12H29.84C29.92 67.12 29.92 67.12 30 67.2C30 67.28 30.08 67.28 30.08 67.36V69.04C30.08 69.12 30.08 69.12 30 69.2C29.92 69.28 29.92 69.28 29.84 69.28H22.96C22.88 69.28 22.88 69.28 22.8 69.2C22.72 69.2 22.72 69.12 22.72 69.04V57.52C22.72 57.44 22.72 57.44 22.8 57.36C22.8 57.36 22.88 57.28 22.96 57.28H29.84C29.92 57.28 29.92 57.28 30 57.36C30 57.36 30.08 57.44 30.08 57.52V59.12ZM40 69.2H37.92C37.84 69.2 37.76 69.12 37.68 69.04L37.28 67.36C37.28 67.28 37.28 67.28 37.2 67.28H34C33.92 67.28 33.92 67.28 33.92 67.36L33.52 69.04C33.52 69.12 33.44 69.2 33.28 69.2H31.2C31.04 69.2 30.96 69.12 31.04 68.96L34.08 57.44C34.08 57.36 34.16 57.28 34.32 57.28H36.8C36.96 57.28 37.04 57.36 37.04 57.44L40.16 68.96V69.04C40.16 69.12 40.08 69.2 40 69.2ZM49.04 69.2H46.96C46.8 69.2 46.72 69.12 46.72 69.04L45.04 64.32C45.04 64.24 44.96 64.24 44.96 64.24H43.92C43.84 64.24 43.84 64.24 43.84 64.32V68.96C43.84 69.04 43.84 69.04 43.76 69.12C43.68 69.2 43.68 69.2 43.6 69.2H41.6C41.52 69.2 41.52 69.2 41.44 69.12C41.36 69.12 41.36 69.04 41.36 68.96V57.44C41.36 57.36 41.36 57.36 41.44 57.28C41.44 57.28 41.52 57.2 41.6 57.2H45.76C46.4 57.2 47.04 57.36 47.52 57.68C48.08 58 48.48 58.4 48.72 58.96C49.04 59.52 49.12 60.16 49.12 60.8C49.12 61.52 48.96 62.16 48.64 62.72C48.32 63.28 47.84 63.68 47.28 63.92C47.2 64 47.2 64 47.2 64.08L49.12 68.96V69.04C49.2 69.12 49.12 69.2 49.04 69.2ZM49.2 52C49.12 52 49.12 51.92 49.12 51.84V40.32C49.12 40.24 49.12 40.24 49.2 40.16C49.2 40.16 49.28 40.08 49.36 40.08H51.36C51.44 40.08 51.44 40.08 51.52 40.16C51.52 40.16 51.6 40.24 51.6 40.32V49.92C51.6 50 51.6 50 51.68 50H56.24C56.32 50 56.32 50 56.4 50.08C56.4 50.16 56.48 50.16 56.48 50.24V51.92C56.48 52 56.48 52 56.4 52.08C56.32 52.16 56.32 52.16 56.24 52.16H49.36C49.28 52.08 49.28 52 49.2 52ZM52.8 68.88C52.48 69.2 52.16 69.28 51.68 69.28C51.28 69.28 50.88 69.12 50.64 68.88C50.32 68.56 50.24 68.24 50.24 67.84C50.24 67.44 50.4 67.12 50.72 66.8C51.04 66.48 51.36 66.4 51.76 66.4C52.16 66.4 52.48 66.56 52.8 66.8C53.12 67.12 53.28 67.44 53.28 67.84C53.28 68.24 53.12 68.56 52.8 68.88ZM61.2 68.4C60.48 69.04 59.6 69.28 58.4 69.28C57.6 69.28 56.96 69.12 56.4 68.88C55.84 68.64 55.36 68.24 55.04 67.68C54.72 67.2 54.56 66.56 54.56 65.92V65.44C54.56 65.36 54.56 65.36 54.64 65.28C54.64 65.28 54.72 65.2 54.8 65.2H56.72C56.8 65.2 56.8 65.2 56.88 65.28C56.88 65.36 56.96 65.36 56.96 65.44V65.76C56.96 66.16 57.12 66.48 57.44 66.72C57.76 66.96 58.16 67.12 58.56 67.12C59.04 67.12 59.36 67.04 59.6 66.8C59.84 66.56 59.92 66.32 59.92 65.92C59.92 65.68 59.84 65.44 59.68 65.28C59.52 65.12 59.36 64.88 59.04 64.72C58.8 64.56 58.4 64.32 57.84 64.08C57.12 63.76 56.64 63.44 56.16 63.12C55.76 62.8 55.36 62.48 55.04 62C54.72 61.52 54.56 60.96 54.56 60.32C54.56 59.36 54.88 58.56 55.6 57.92C56.32 57.36 57.2 57.04 58.32 57.04C59.12 57.04 59.76 57.2 60.32 57.44C60.88 57.76 61.36 58.16 61.68 58.64C62 59.2 62.16 59.76 62.16 60.48V60.8C62.16 60.88 62.16 60.88 62.08 60.96C62 60.96 62 61.04 61.92 61.04H60C59.92 61.04 59.92 61.04 59.84 60.96C59.76 60.88 59.76 60.88 59.76 60.8V60.48C59.76 60.08 59.6 59.76 59.36 59.44C59.04 59.2 58.72 59.04 58.24 59.04C57.84 59.04 57.52 59.12 57.28 59.36C57.04 59.6 56.96 59.84 56.96 60.24C56.96 60.48 57.04 60.72 57.2 60.96C57.36 61.12 57.52 61.36 57.84 61.52C58.16 61.68 58.56 61.92 59.12 62.24L59.52 62.48C60.16 62.88 60.72 63.2 61.04 63.44C61.44 63.68 61.68 64.08 62 64.48C62.24 64.88 62.4 65.36 62.4 65.92C62.24 66.96 61.84 67.84 61.2 68.4ZM70.72 59.12C70.72 59.2 70.72 59.2 70.64 59.28C70.56 59.36 70.56 59.36 70.48 59.36H65.92C65.84 59.36 65.84 59.36 65.84 59.44V62.08C65.84 62.16 65.84 62.16 65.92 62.16H68.8C68.88 62.16 68.88 62.16 68.96 62.24C68.96 62.32 69.04 62.32 69.04 62.4V64C69.04 64.08 69.04 64.08 68.96 64.16C68.88 64.16 68.88 64.24 68.8 64.24H65.92C65.84 64.24 65.84 64.24 65.84 64.32V67.04C65.84 67.12 65.84 67.12 65.92 67.12H70.48C70.56 67.12 70.56 67.12 70.64 67.2C70.64 67.28 70.72 67.28 70.72 67.36V69.04C70.72 69.12 70.72 69.12 70.64 69.2C70.56 69.28 70.56 69.28 70.48 69.28H63.6C63.52 69.28 63.52 69.28 63.44 69.2C63.36 69.2 63.36 69.12 63.36 69.04V57.52C63.36 57.44 63.36 57.44 63.44 57.36C63.44 57.36 63.52 57.28 63.6 57.28H70.48C70.56 57.28 70.56 57.28 70.64 57.36C70.64 57.36 70.72 57.44 70.72 57.52V59.12Z" fill="black"/>
</g>
</svg>
