<svg width="40" height="40" viewBox="0 0 40 40" fill="none" xmlns="http://www.w3.org/2000/svg">
<g id="questionnaire 1">
<g id="Layer_13">
<path id="Vector" d="M17.4761 35.1238H8.20114C6.54614 35.1238 5.20114 33.7788 5.20114 32.125V10.6362C5.20114 8.9825 6.54739 7.63625 8.20114 7.63625H10.4624C10.4324 8.19875 10.5674 8.76375 10.8924 9.24375C11.3799 9.96375 12.1899 10.3925 13.0586 10.3925H22.2661C23.1349 10.3925 23.9449 9.9625 24.4324 9.24375C24.7574 8.76375 24.8924 8.19875 24.8624 7.63625H27.1274C28.7824 7.63625 30.1274 8.9825 30.1274 10.6362V18.0363C30.1274 18.6575 30.6311 19.1613 31.2524 19.1613C31.8736 19.1613 32.3774 18.6575 32.3774 18.0363V10.6362C32.3774 7.74125 30.0224 5.38625 27.1274 5.38625H24.1311L23.6861 4.27125C23.2861 3.27125 22.3324 2.625 21.2561 2.625H14.0699C12.9924 2.625 12.0386 3.2725 11.6399 4.2725L11.1936 5.3875H8.20239C5.30739 5.3875 2.95239 7.7425 2.95239 10.6375V32.125C2.95239 35.0188 5.30739 37.375 8.20239 37.375H17.4774C18.0986 37.375 18.6024 36.8712 18.6024 36.25C18.6024 35.6287 18.0986 35.1238 17.4761 35.1238ZM12.7174 7.63875L13.7286 5.10625C13.7849 4.96625 13.9186 4.875 14.0686 4.875H21.2549C21.4061 4.875 21.5399 4.96625 21.5949 5.10625L22.6061 7.63875C22.6686 7.79625 22.6099 7.92125 22.5686 7.98125C22.5286 8.04125 22.4349 8.1425 22.2649 8.1425H13.0574C12.8874 8.1425 12.7949 8.04125 12.7536 7.98125C12.7136 7.92125 12.6549 7.79625 12.7174 7.63875Z" fill="#7EC39B"/>
<path id="Vector_2" d="M25.8112 19.3501C25.8112 18.7288 25.3074 18.2251 24.6862 18.2251H16.2849C15.6637 18.2251 15.1599 18.7288 15.1599 19.3501C15.1599 19.9713 15.6637 20.4751 16.2849 20.4751H24.6862C25.3087 20.4751 25.8112 19.9726 25.8112 19.3501Z" fill="#F6BACB"/>
<path id="Vector_3" d="M11.7762 18.2263H10.6375C10.0162 18.2263 9.51245 18.7301 9.51245 19.3513C9.51245 19.9726 10.0162 20.4763 10.6375 20.4763H11.7775C12.3987 20.4763 12.9025 19.9726 12.9025 19.3513C12.9025 18.7301 12.3975 18.2263 11.7762 18.2263Z" fill="#F6BACB"/>
<path id="Vector_4" d="M16.2886 25.0488C15.6673 25.0488 15.1636 25.5526 15.1636 26.1738C15.1636 26.7951 15.6673 27.2988 16.2886 27.2988H21.8511C22.4723 27.2988 22.9761 26.7951 22.9761 26.1738C22.9761 25.5526 22.4723 25.0488 21.8511 25.0488H16.2886Z" fill="#F6BACB"/>
<path id="Vector_5" d="M11.7762 25.05H10.6375C10.0162 25.05 9.51245 25.5538 9.51245 26.175C9.51245 26.7963 10.0162 27.3 10.6375 27.3H11.7775C12.3987 27.3 12.9025 26.7963 12.9025 26.175C12.9025 25.5538 12.3975 25.05 11.7762 25.05Z" fill="#F6BACB"/>
<path id="Vector_6" d="M35.9813 22.6711C34.6063 21.2961 32.2075 21.2961 30.8325 22.6711L22.3375 31.1661C22.0388 31.4649 21.8438 31.8436 21.7738 32.2599L21.3075 35.0136C21.1988 35.6599 21.4113 36.3199 21.8738 36.7824C22.2563 37.1624 22.7725 37.3724 23.3025 37.3724C23.415 37.3724 23.5275 37.3624 23.64 37.3449L26.3913 36.8799C26.81 36.8099 27.1888 36.6149 27.4863 36.3161L35.9813 27.8211C37.4013 26.3999 37.4013 24.0899 35.9813 22.6711ZM25.9475 34.6711L23.5813 35.0711L23.98 32.7049L29.9 26.7849L31.8663 28.7511L25.9475 34.6711ZM34.3913 26.2274L33.4588 27.1599L31.4925 25.1936L32.425 24.2611C32.9513 23.7336 33.8663 23.7349 34.3913 24.2599C34.9325 24.8036 34.9325 25.6861 34.3913 26.2274Z" fill="#7EC39B"/>
</g>
</g>
</svg>
