<?xml version="1.0" encoding="utf-8"?>
<!-- Generator: Adobe Illustrator 27.0.1, SVG Export Plug-In . SVG Version: 6.00 Build 0)  -->
<svg version="1.1" id="Layer_1" xmlns="http://www.w3.org/2000/svg" xmlns:xlink="http://www.w3.org/1999/xlink" x="0px" y="0px"
	 viewBox="0 0 225.3 212" style="enable-background:new 0 0 225.3 212;" xml:space="preserve">
<style type="text/css">
	.st0{opacity:0.4;}
	.st1{fill:#FFFFFF;stroke:#4E4E4E;}
	.st2{fill:#DCDCDC;}
	.st3{fill:#FFFFFF;}
	.st4{fill:#F5BACB;}
	.st5{fill:none;stroke:#4E4E4E;}
	.st6{fill:#4E4E4E;}
</style>
<g class="st0">
	<path class="st1" d="M112.1,75.2h52.2c10.8,0,19.5,8.7,19.5,19.5V192c0,10.8-8.7,19.5-19.5,19.5h-52.2c-10.8,0-19.5-8.7-19.5-19.5
		V94.7C92.6,83.9,101.3,75.2,112.1,75.2z"/>
	<path class="st2" d="M106.8,91h63.9c1.2,0,2.1,0.9,2.1,2.1l0,0c0,1.2-0.9,2.1-2.1,2.1h-63.9c-1.2,0-2.1-0.9-2.1-2.1l0,0
		C104.7,91.9,105.6,91,106.8,91z"/>
	<path class="st2" d="M106.8,100.4h63.9c1.2,0,2.1,0.9,2.1,2.1l0,0c0,1.2-0.9,2.1-2.1,2.1h-63.9c-1.2,0-2.1-0.9-2.1-2.1l0,0
		C104.7,101.3,105.6,100.4,106.8,100.4z"/>
	<path class="st2" d="M106.8,174.8h63.9c1.2,0,2.1,0.9,2.1,2.1l0,0c0,1.2-0.9,2.1-2.1,2.1h-63.9c-1.2,0-2.1-0.9-2.1-2.1l0,0
		C104.7,175.7,105.6,174.8,106.8,174.8z"/>
	<path class="st2" d="M106.8,155.9h63.9c1.2,0,2.1,0.9,2.1,2.1l0,0c0,1.2-0.9,2.1-2.1,2.1h-63.9c-1.2,0-2.1-0.9-2.1-2.1l0,0
		C104.7,156.9,105.6,155.9,106.8,155.9z"/>
	<path class="st2" d="M106.8,147h63.9c1.2,0,2.1,0.9,2.1,2.1l0,0c0,1.2-0.9,2.1-2.1,2.1h-63.9c-1.2,0-2.1-0.9-2.1-2.1l0,0
		C104.7,148,105.6,147,106.8,147z"/>
	<path class="st2" d="M106.8,193.7h63.9c1.2,0,2.1,0.9,2.1,2.1l0,0c0,1.2-0.9,2.1-2.1,2.1h-63.9c-1.2,0-2.1-0.9-2.1-2.1l0,0
		C104.7,194.6,105.6,193.7,106.8,193.7z"/>
	<path class="st2" d="M106.8,109.8h6.3c1.2,0,2.1,0.9,2.1,2.1l0,0c0,1.2-0.9,2.1-2.1,2.1h-6.3c-1.2,0-2.1-0.9-2.1-2.1l0,0
		C104.7,110.8,105.6,109.8,106.8,109.8z"/>
	<path class="st2" d="M118.3,111.9c0-1.2,0.9-2.1,2.1-2.1h50.3c1.2,0,2.1,0.9,2.1,2.1l0,0c0,1.2-0.9,2.1-2.1,2.1h-50.3
		C119.2,114,118.3,113.1,118.3,111.9L118.3,111.9z"/>
	<path class="st2" d="M118.3,111.9c0-1.2,0.9-2.1,2.1-2.1h50.3c1.2,0,2.1,0.9,2.1,2.1l0,0c0,1.2-0.9,2.1-2.1,2.1h-50.3
		C119.2,114,118.3,113.1,118.3,111.9L118.3,111.9z"/>
	<path class="st2" d="M106.8,128.7h63.9c1.2,0,2.1,0.9,2.1,2.1l0,0c0,1.2-0.9,2.1-2.1,2.1h-63.9c-1.2,0-2.1-0.9-2.1-2.1l0,0
		C104.7,129.6,105.6,128.7,106.8,128.7z"/>
	<path class="st2" d="M106.8,138.1h6.3c1.2,0,2.1,0.9,2.1,2.1l0,0c0,1.2-0.9,2.1-2.1,2.1h-6.3c-1.2,0-2.1-0.9-2.1-2.1l0,0
		C104.7,139.1,105.6,138.1,106.8,138.1z"/>
	<path class="st2" d="M118.3,140.2c0-1.2,0.9-2.1,2.1-2.1h50.3c1.2,0,2.1,0.9,2.1,2.1l0,0c0,1.2-0.9,2.1-2.1,2.1h-50.3
		C119.2,142.3,118.3,141.4,118.3,140.2L118.3,140.2z"/>
	<path class="st2" d="M118.3,140.2c0-1.2,0.9-2.1,2.1-2.1h50.3c1.2,0,2.1,0.9,2.1,2.1l0,0c0,1.2-0.9,2.1-2.1,2.1h-50.3
		C119.2,142.3,118.3,141.4,118.3,140.2L118.3,140.2z"/>
	<path class="st2" d="M106.8,165.4h6.3c1.2,0,2.1,0.9,2.1,2.1l0,0c0,1.2-0.9,2.1-2.1,2.1h-6.3c-1.2,0-2.1-0.9-2.1-2.1l0,0
		C104.7,166.3,105.6,165.4,106.8,165.4z"/>
	<path class="st2" d="M118.3,167.5c0-1.2,0.9-2.1,2.1-2.1h50.3c1.2,0,2.1,0.9,2.1,2.1l0,0c0,1.2-0.9,2.1-2.1,2.1h-50.3
		C119.2,169.6,118.3,168.6,118.3,167.5L118.3,167.5z"/>
	<path class="st2" d="M118.3,167.5c0-1.2,0.9-2.1,2.1-2.1h50.3c1.2,0,2.1,0.9,2.1,2.1l0,0c0,1.2-0.9,2.1-2.1,2.1h-50.3
		C119.2,169.6,118.3,168.6,118.3,167.5L118.3,167.5z"/>
	<path class="st2" d="M106.8,184.2h6.3c1.2,0,2.1,0.9,2.1,2.1l0,0c0,1.2-0.9,2.1-2.1,2.1h-6.3c-1.2,0-2.1-0.9-2.1-2.1l0,0
		C104.7,185.2,105.6,184.2,106.8,184.2z"/>
	<path class="st2" d="M119.9,184.2H134c1.2,0,2.1,0.9,2.1,2.1l0,0c0,1.2-0.9,2.1-2.1,2.1h-14.1c-1.2,0-2.1-0.9-2.1-2.1l0,0
		C117.8,185.2,118.7,184.2,119.9,184.2z"/>
	<path class="st2" d="M138.7,186.3c0-1.2,0.9-2.1,2.1-2.1h30.4c1.2,0,2.1,0.9,2.1,2.1l0,0c0,1.2-0.9,2.1-2.1,2.1h-30.4
		C139.7,188.4,138.7,187.5,138.7,186.3L138.7,186.3z"/>
	<path class="st2" d="M164.4,119.3h6.3c1.2,0,2.1,0.9,2.1,2.1l0,0c0,1.2-0.9,2.1-2.1,2.1h-6.3c-1.2,0-2.1-0.9-2.1-2.1l0,0
		C162.3,120.2,163.2,119.3,164.4,119.3z"/>
	<path class="st2" d="M104.7,121.3c0-1.2,0.9-2.1,2.1-2.1h50.3c1.2,0,2.1,0.9,2.1,2.1l0,0c0,1.2-0.9,2.1-2.1,2.1h-50.3
		C105.6,123.4,104.7,122.5,104.7,121.3L104.7,121.3z"/>
</g>
<path class="st1" d="M65.3,23.2H141c10.8,0,19.5,8.7,19.5,19.5v132.2c0,10.8-8.7,19.5-19.5,19.5H65.3c-10.8,0-19.5-8.7-19.5-19.5
	V42.7C45.8,31.9,54.6,23.2,65.3,23.2z"/>
<path class="st2" d="M63.7,43h80.2c1.5,0,2.6,1.2,2.6,2.6v0c0,1.5-1.2,2.6-2.6,2.6H63.7c-1.5,0-2.6-1.2-2.6-2.6v0
	C61.1,44.2,62.3,43,63.7,43z"/>
<path class="st2" d="M63.7,54.9h80.2c1.5,0,2.6,1.2,2.6,2.6v0c0,1.5-1.2,2.6-2.6,2.6H63.7c-1.5,0-2.6-1.2-2.6-2.6v0
	C61.1,56,62.3,54.9,63.7,54.9z"/>
<path class="st2" d="M63.7,148.2h80.2c1.5,0,2.6,1.2,2.6,2.6l0,0c0,1.5-1.2,2.6-2.6,2.6H63.7c-1.5,0-2.6-1.2-2.6-2.6l0,0
	C61.1,149.4,62.3,148.2,63.7,148.2z"/>
<path class="st2" d="M63.7,124.5h80.2c1.5,0,2.6,1.2,2.6,2.6l0,0c0,1.5-1.2,2.6-2.6,2.6H63.7c-1.5,0-2.6-1.2-2.6-2.6l0,0
	C61.1,125.7,62.3,124.5,63.7,124.5z"/>
<path class="st2" d="M63.7,113.4h80.2c1.5,0,2.6,1.2,2.6,2.6v0c0,1.5-1.2,2.6-2.6,2.6H63.7c-1.5,0-2.6-1.2-2.6-2.6v0
	C61.1,114.5,62.3,113.4,63.7,113.4z"/>
<path class="st2" d="M63.7,171.9h80.2c1.5,0,2.6,1.2,2.6,2.6l0,0c0,1.5-1.2,2.6-2.6,2.6H63.7c-1.5,0-2.6-1.2-2.6-2.6l0,0
	C61.1,173.1,62.3,171.9,63.7,171.9z"/>
<path class="st2" d="M63.7,66.7h7.9c1.5,0,2.6,1.2,2.6,2.6v0c0,1.5-1.2,2.6-2.6,2.6h-7.9c-1.5,0-2.6-1.2-2.6-2.6v0
	C61.1,67.9,62.3,66.7,63.7,66.7z"/>
<path class="st2" d="M78.2,69.3c0-1.5,1.2-2.6,2.6-2.6h63.1c1.5,0,2.6,1.2,2.6,2.6l0,0c0,1.5-1.2,2.6-2.6,2.6H80.8
	C79.4,72,78.2,70.8,78.2,69.3L78.2,69.3z"/>
<path class="st2" d="M78.2,69.3c0-1.5,1.2-2.6,2.6-2.6h63.1c1.5,0,2.6,1.2,2.6,2.6l0,0c0,1.5-1.2,2.6-2.6,2.6H80.8
	C79.4,72,78.2,70.8,78.2,69.3L78.2,69.3z"/>
<path class="st2" d="M63.7,90.4h80.2c1.5,0,2.6,1.2,2.6,2.6v0c0,1.5-1.2,2.6-2.6,2.6H63.7c-1.5,0-2.6-1.2-2.6-2.6v0
	C61.1,91.5,62.3,90.4,63.7,90.4z"/>
<path class="st2" d="M63.7,102.2h7.9c1.5,0,2.6,1.2,2.6,2.6v0c0,1.5-1.2,2.6-2.6,2.6h-7.9c-1.5,0-2.6-1.2-2.6-2.6v0
	C61.1,103.4,62.3,102.2,63.7,102.2z"/>
<path class="st2" d="M78.2,104.8c0-1.5,1.2-2.6,2.6-2.6h63.1c1.5,0,2.6,1.2,2.6,2.6l0,0c0,1.5-1.2,2.6-2.6,2.6H80.8
	C79.4,107.5,78.2,106.3,78.2,104.8L78.2,104.8z"/>
<path class="st2" d="M78.2,104.8c0-1.5,1.2-2.6,2.6-2.6h63.1c1.5,0,2.6,1.2,2.6,2.6l0,0c0,1.5-1.2,2.6-2.6,2.6H80.8
	C79.4,107.5,78.2,106.3,78.2,104.8L78.2,104.8z"/>
<path class="st2" d="M63.7,136.4h7.9c1.5,0,2.6,1.2,2.6,2.6l0,0c0,1.5-1.2,2.6-2.6,2.6h-7.9c-1.5,0-2.6-1.2-2.6-2.6l0,0
	C61.1,137.6,62.3,136.4,63.7,136.4z"/>
<path class="st2" d="M78.2,139c0-1.5,1.2-2.6,2.6-2.6h63.1c1.5,0,2.6,1.2,2.6,2.6l0,0c0,1.5-1.2,2.6-2.6,2.6H80.8
	C79.4,141.6,78.2,140.5,78.2,139L78.2,139z"/>
<path class="st2" d="M78.2,139c0-1.5,1.2-2.6,2.6-2.6h63.1c1.5,0,2.6,1.2,2.6,2.6l0,0c0,1.5-1.2,2.6-2.6,2.6H80.8
	C79.4,141.6,78.2,140.5,78.2,139L78.2,139z"/>
<path class="st2" d="M63.7,160h7.9c1.5,0,2.6,1.2,2.6,2.6l0,0c0,1.5-1.2,2.6-2.6,2.6h-7.9c-1.5,0-2.6-1.2-2.6-2.6l0,0
	C61.1,161.2,62.3,160,63.7,160z"/>
<path class="st2" d="M80.2,160h17.7c1.5,0,2.6,1.2,2.6,2.6l0,0c0,1.5-1.2,2.6-2.6,2.6H80.2c-1.5,0-2.6-1.2-2.6-2.6l0,0
	C77.5,161.2,78.7,160,80.2,160z"/>
<path class="st2" d="M103.8,162.7c0-1.5,1.2-2.6,2.6-2.6h38.1c1.5,0,2.6,1.2,2.6,2.6l0,0c0,1.5-1.2,2.6-2.6,2.6h-38.1
	C105,165.3,103.8,164.1,103.8,162.7L103.8,162.7z"/>
<path class="st2" d="M136,78.5h7.9c1.5,0,2.6,1.2,2.6,2.6v0c0,1.5-1.2,2.6-2.6,2.6H136c-1.5,0-2.6-1.2-2.6-2.6v0
	C133.4,79.7,134.6,78.5,136,78.5z"/>
<path class="st2" d="M61.1,81.2c0-1.5,1.2-2.6,2.6-2.6h63.1c1.5,0,2.6,1.2,2.6,2.6l0,0c0,1.5-1.2,2.6-2.6,2.6H63.7
	C62.3,83.8,61.1,82.6,61.1,81.2L61.1,81.2z"/>
<path class="st3" d="M152.6,124.9l-7.6,7.3l7.6,10.8l20.4,15.6l4-9.1L152.6,124.9z"/>
<circle class="st3" cx="118" cy="99" r="30"/>
<path class="st4" d="M179.4,151.1c0,2.3-0.9,4.5-2.5,6.1c-1.6,1.6-3.8,2.5-6.1,2.5s-4.5-0.9-6.1-2.5l-22.8-22.8
	c-0.8-0.8-0.8-2.2,0-3.1l3.1-3.1l-4.8-4.8c-5.7,5-13.2,8.1-21.5,8.1c-18,0-32.6-14.6-32.6-32.6c0-18,14.6-32.6,32.6-32.6
	s32.6,14.6,32.6,32.6c0,8.2-3.1,15.7-8.1,21.5l4.8,4.8l3.1-3.1c0.8-0.8,2.2-0.8,3.1,0l22.8,22.8
	C178.5,146.6,179.4,148.8,179.4,151.1z M146.8,98.9c0-15.6-12.7-28.3-28.3-28.3c-15.6,0-28.3,12.7-28.3,28.3
	c0,15.6,12.7,28.3,28.3,28.3C134.1,127.2,146.8,114.5,146.8,98.9z M175,151.1c0-1.2-0.5-2.3-1.3-3.1l-21.3-21.3l-6.1,6.1l21.3,21.3
	c1.6,1.6,4.5,1.6,6.1,0C174.6,153.3,175,152.2,175,151.1z"/>
<path class="st5" d="M25.1,147.5l-0.4-8.6l-7,4.3L25.1,147.5z"/>
<path class="st5" d="M187.2,22.7l-0.4-8.6l-7,4.3L187.2,22.7z"/>
<line class="st5" x1="51.4" y1="0" x2="51.4" y2="2.5"/>
<line class="st5" x1="51.4" y1="4" x2="51.4" y2="6.5"/>
<line class="st5" x1="54.4" y1="3.5" x2="51.9" y2="3.5"/>
<line class="st5" x1="50.4" y1="3.5" x2="47.8" y2="3.5"/>
<line class="st5" x1="5.6" y1="54.4" x2="5.6" y2="58.6"/>
<line class="st5" x1="5.6" y1="61.2" x2="5.6" y2="65.5"/>
<line class="st5" x1="11.1" y1="60" x2="6.8" y2="60"/>
<line class="st5" x1="4.3" y1="60" x2="0" y2="60"/>
<line class="st5" x1="204.5" y1="160.1" x2="204.5" y2="164.4"/>
<line class="st5" x1="204.5" y1="167" x2="204.5" y2="171.2"/>
<line class="st5" x1="210" y1="165.7" x2="205.7" y2="165.7"/>
<line class="st5" x1="203.2" y1="165.7" x2="198.9" y2="165.7"/>
<line class="st5" x1="218.9" y1="75.2" x2="225" y2="81.2"/>
<line class="st5" x1="224.4" y1="75.4" x2="218.4" y2="81.4"/>
<path class="st6" d="M126.3,103.6c0.1,0.1,0.2,0.2,0.1,0.4c0,0.2,0,0.3-0.1,0.4l-2.4,2.4c-0.1,0.1-0.2,0.2-0.4,0.2
	c-0.1,0-0.2-0.1-0.4-0.2l-4.7-4.7c-0.1-0.1-0.2-0.1-0.3,0l-4.6,4.6c-0.1,0.1-0.2,0.2-0.4,0.2c-0.1,0-0.2-0.1-0.4-0.2l-2.4-2.4
	c-0.1-0.1-0.2-0.2-0.2-0.4c0-0.2,0.1-0.3,0.2-0.4l4.6-4.6c0.1-0.1,0.1-0.2,0-0.3l-4.7-4.7c-0.1-0.1-0.2-0.2-0.2-0.4
	c0-0.2,0.1-0.3,0.2-0.4l2.4-2.4c0.1-0.1,0.2-0.2,0.4-0.2c0.2,0,0.3,0.1,0.4,0.2l4.7,4.7c0.1,0.1,0.2,0.1,0.3,0l4.8-4.8
	c0.1-0.1,0.2-0.2,0.4-0.2c0.2,0,0.3,0.1,0.4,0.2l2.4,2.4c0.1,0.1,0.2,0.2,0.1,0.4c0,0.2,0,0.3-0.1,0.4l-4.8,4.8
	c-0.1,0.1-0.1,0.2,0,0.3L126.3,103.6z"/>
</svg>
