<svg width="32" height="32" viewBox="0 0 32 32" fill="none" xmlns="http://www.w3.org/2000/svg">
<g id="sketching 1">
<g id="Icon">
<path id="Vector" fill-rule="evenodd" clip-rule="evenodd" d="M23.4681 5.848C24.0135 4.68 25.4015 4.17466 26.5695 4.71866L28.9855 5.84533C30.1535 6.39066 30.6588 7.77866 30.1148 8.94666L25.6068 18.6147C25.5228 18.7933 25.3881 18.9427 25.2201 19.0453L21.1121 21.544C20.8268 21.7173 20.4735 21.7373 20.1708 21.596C19.8668 21.4547 19.6548 21.1707 19.6041 20.8413L18.8788 16.088C18.8481 15.8933 18.8775 15.6933 18.9601 15.5147L23.4681 5.848ZM25.2815 6.69333L20.9015 16.0853L21.3548 19.056L23.9215 17.4947L28.3015 8.10133C28.3801 7.93466 28.3081 7.736 28.1401 7.65866L25.7241 6.532C25.5575 6.45333 25.3588 6.52533 25.2815 6.69333Z" fill="#F6BACB"/>
<path id="Vector_2" fill-rule="evenodd" clip-rule="evenodd" d="M22.8255 9.59338C22.3242 9.36004 22.1082 8.76404 22.3415 8.26404C22.5749 7.76404 23.1695 7.54804 23.6709 7.78138L28.5042 10.0347C29.0042 10.268 29.2215 10.864 28.9882 11.364C28.7549 11.864 28.1589 12.08 27.6589 11.8467L22.8255 9.59338Z" fill="#F6BACB"/>
<path id="Vector_3" fill-rule="evenodd" clip-rule="evenodd" d="M7.3335 10.1666C6.7815 10.1666 6.3335 9.71863 6.3335 9.16663C6.3335 8.61463 6.7815 8.16663 7.3335 8.16663H18.6668C19.2188 8.16663 19.6668 8.61463 19.6668 9.16663C19.6668 9.71863 19.2188 10.1666 18.6668 10.1666H7.3335Z" fill="#7EC39B"/>
<path id="Vector_4" fill-rule="evenodd" clip-rule="evenodd" d="M3.66675 24.1214V24.1667C3.68941 24.9067 4.29741 25.5 5.04275 25.5H28.3334V16.5C28.3334 15.948 28.7814 15.5 29.3334 15.5C29.8854 15.5 30.3334 15.948 30.3334 16.5V26.5C30.3334 27.052 29.8854 27.5 29.3334 27.5H5.04275C3.17875 27.5 1.66675 25.988 1.66675 24.124C1.66675 24.1227 1.66675 24.1227 1.66675 24.1214V8.12137C1.66675 7.24937 2.01341 6.41337 2.62941 5.79604C3.24675 5.18004 4.08275 4.83337 4.95475 4.83337H7.33341C7.88541 4.83337 8.33341 5.28137 8.33341 5.83337V21.8334C8.33341 22.3854 7.88541 22.8334 7.33341 22.8334H4.95475C4.61341 22.8334 4.28541 22.9694 4.04408 23.2107C3.80275 23.452 3.66675 23.78 3.66675 24.1214ZM3.66675 21.096C4.07075 20.924 4.50808 20.8334 4.95475 20.8334H6.33341V6.83337H4.95475C4.61341 6.83337 4.28541 6.96937 4.04408 7.21071C3.80275 7.45204 3.66675 7.78004 3.66675 8.12137V21.096ZM2.66408 25.1214L2.66675 25.124C2.66675 25.124 2.66675 25.1227 2.66675 25.1214C2.66541 25.1214 2.66541 25.1214 2.66408 25.1214Z" fill="#7EC39B"/>
</g>
</g>
</svg>
