<svg width="32" height="32" viewBox="0 0 32 32" fill="none" xmlns="http://www.w3.org/2000/svg">
<g id="t-shirt (2) 1" clip-path="url(#clip0_109_5082)">
<g id="Group">
<path id="Vector" d="M28.6974 3.7329L21.3616 0.953087C21.2555 0.912837 21.1429 0.892212 21.0294 0.892212H10.6894C10.5729 0.892212 10.4574 0.913962 10.3489 0.956212L3.25712 3.72102C2.29344 4.09677 1.47562 4.74665 0.892062 5.60052C0.3085 6.45446 0 7.45252 0 8.48684V16.0542C0 16.572 0.41975 16.9917 0.9375 16.9917H5.36631V30.1703C5.36631 30.688 5.78606 31.1078 6.30381 31.1078H25.423C25.9408 31.1078 26.3605 30.688 26.3605 30.1703V16.9917H31.0625C31.5803 16.9917 32 16.572 32 16.0542V8.51609C32 6.40359 30.6728 4.48134 28.6974 3.7329ZM19.9891 2.76721C19.5624 4.68427 17.8483 6.11434 15.8594 6.11434C13.8478 6.11434 12.1522 4.70665 11.7289 2.76721H19.9891ZM30.125 15.1167H26.3606V12.8092C26.3606 12.2915 25.9408 11.8717 25.4231 11.8717C24.9053 11.8717 24.4856 12.2915 24.4856 12.8092V29.2328H7.24131V12.8092C7.24131 12.2915 6.82156 11.8717 6.30381 11.8717C5.78606 11.8717 5.36631 12.2915 5.36631 12.8092V15.1167H1.875V8.48684C1.875 7.14165 2.68488 5.95665 3.93819 5.46796L9.89356 3.14621C10.1619 4.38727 10.8053 5.51927 11.7492 6.38584C12.8755 7.4199 14.3352 7.98934 15.8594 7.98934C17.4025 7.98934 18.8757 7.4074 20.0074 6.35084C20.9353 5.48459 21.5654 4.36315 21.8283 3.13496L28.0331 5.48615C29.2843 5.96034 30.125 7.17796 30.125 8.51609V15.1167Z" fill="#7EC39B"/>
<path id="Vector_2" d="M16.721 12.5452C16.5428 12.3311 16.2788 12.2074 16.0004 12.2074C15.7219 12.2074 15.4579 12.3311 15.2797 12.5452L11.7417 16.7968C10.3834 18.4291 10.0922 20.6618 10.9818 22.6236C11.8892 24.6247 13.8023 25.902 15.9747 25.957C15.9827 25.9572 15.9906 25.9573 15.9985 25.9573C16.0064 25.9573 16.0143 25.9572 16.0222 25.957C18.1959 25.902 20.1102 24.6238 21.0182 22.6213C21.9076 20.66 21.6167 18.4281 20.2591 16.7968L16.721 12.5452ZM19.3105 21.847C18.7052 23.1819 17.4376 24.0365 15.9984 24.082C14.5605 24.0366 13.294 23.1829 12.6894 21.8493C12.0902 20.528 12.2747 19.0876 13.183 17.9961L16.0004 14.6105L18.8177 17.9961C19.7252 19.0866 19.9094 20.5261 19.3105 21.847Z" fill="#F6BACB"/>
</g>
</g>
<defs>
<clipPath id="clip0_109_5082">
<rect width="32" height="32" fill="white"/>
</clipPath>
</defs>
</svg>
