<svg width="14" height="14" viewBox="0 0 14 14" fill="none" xmlns="http://www.w3.org/2000/svg">
<g id="update">
<mask id="mask0_222_7893" style="mask-type:alpha" maskUnits="userSpaceOnUse" x="0" y="0" width="14" height="14">
<rect id="Bounding box" width="14" height="14" fill="#D9D9D9"/>
</mask>
<g mask="url(#mask0_222_7893)">
<path id="update_2" d="M6.70832 11.6666C6.02029 11.6666 5.37563 11.5365 4.77435 11.2762C4.17307 11.016 3.64882 10.6623 3.2016 10.215C2.75437 9.76782 2.40064 9.24357 2.14038 8.64229C1.88013 8.04101 1.75 7.39635 1.75 6.70832C1.75 6.02029 1.88013 5.37563 2.14038 4.77435C2.40064 4.17307 2.75437 3.64882 3.2016 3.2016C3.64882 2.75438 4.17307 2.40065 4.77435 2.1404C5.37563 1.88013 6.02029 1.75 6.70832 1.75C7.44197 1.75 8.13897 1.90425 8.79932 2.21274C9.45968 2.52124 10.0266 2.95481 10.5 3.51346V2.1314H11.3749V5.09291H8.41343V4.21792H9.93907C9.53672 3.72209 9.05697 3.33264 8.49981 3.04958C7.94266 2.76652 7.34549 2.62499 6.70832 2.62499C5.57082 2.62499 4.60589 3.02117 3.81353 3.81353C3.02117 4.60589 2.62499 5.57082 2.62499 6.70832C2.62499 7.84582 3.02117 8.81075 3.81353 9.60311C4.60589 10.3955 5.57082 10.7917 6.70832 10.7917C7.72915 10.7917 8.6193 10.4602 9.37875 9.79719C10.1382 9.1342 10.5916 8.29902 10.7389 7.29165H11.6319C11.4898 8.54506 10.9494 9.58758 10.0109 10.4192C9.0723 11.2508 7.97145 11.6666 6.70832 11.6666ZM8.44261 9.05735L6.27082 6.88557V3.79165H7.1458V6.53107L9.05734 8.44263L8.44261 9.05735Z" fill="#444444"/>
</g>
</g>
</svg>
