<svg width="16" height="16" viewBox="0 0 16 16" fill="none" xmlns="http://www.w3.org/2000/svg">
<g id="wheel 1" clip-path="url(#clip0_261_7417)">
<path id="Vector" d="M8 15.9997C9.45742 15.9997 10.8237 15.6098 12.0005 14.9289V14.5801L8 15.9997Z" fill="#622876"/>
<path id="Vector_2" d="M7.99999 8L6.125 12.7187L7.99999 16C9.48635 16 10.8647 15.4752 12.0005 14.5804V8H7.99999Z" fill="#962B7C"/>
<path id="Vector_3" d="M11.8608 14.6872L12.0004 14.9289C13.2143 14.2265 14.2266 13.2143 14.929 12.0003V9.38281L11.8608 14.6872Z" fill="#2D2570"/>
<path id="Vector_4" d="M14.9292 9.38308V8H8L11.861 14.6875C13.4499 13.4986 14.5898 11.5974 14.9292 9.38308Z" fill="#622876"/>
<path id="Vector_5" d="M15.0167 7.4375L14.2734 11.6214L14.9292 11.9999C15.6101 10.8231 16 9.45682 16 7.9994L15.0167 7.4375Z" fill="#0556B2"/>
<path id="Vector_6" d="M15.0167 7.43809L12.7187 6.125L8 7.99999L14.2734 11.6219C14.7598 10.5345 15.0342 9.30369 15.0342 7.99999C15.0342 7.81105 15.028 7.62375 15.0167 7.43809Z" fill="#077CCC"/>
<path id="Vector_7" d="M14.9293 4H14.0928L15.0343 8.00055H16.0001C16.0001 6.54313 15.6102 5.17685 14.9293 4Z" fill="#077CCC"/>
<path id="Vector_8" d="M8.9375 4L8 8.00055H15.0342C15.0342 6.54313 14.6913 5.17685 14.0927 4H8.9375Z" fill="#09A1E5"/>
<path id="Vector_9" d="M12.0005 1.07031H11.5176L14.2734 4.37748L14.9292 3.99889C14.2267 2.78492 13.2145 1.77274 12.0005 1.07031Z" fill="#2897B1"/>
<path id="Vector_10" d="M11.5176 1.07031H8.9375L8 7.99947L14.2734 4.37752C13.6552 2.99517 12.6941 1.84456 11.5176 1.07031Z" fill="#49B296"/>
<path id="Vector_11" d="M8 0L11.861 1.31248L12.0005 1.07084C10.8237 0.389924 9.45742 0 8 0Z" fill="#49B296"/>
<path id="Vector_12" d="M6.125 3.28126L7.99999 8L11.861 1.31248C10.7526 0.483058 9.42602 0 7.99999 0L6.125 3.28126Z" fill="#89C247"/>
<path id="Vector_13" d="M3.99951 14.9292C5.17636 15.6101 6.54264 16 8.00006 16V8H3.99951V14.9292Z" fill="#CB2E81"/>
<path id="Vector_14" d="M1.0708 12.0005C1.77322 13.2146 2.78541 14.2267 3.99941 14.9292L7.99996 8H1.0708V12.0005Z" fill="#FF3187"/>
<path id="Vector_15" d="M0 7.99999C0 9.45741 0.389924 10.8237 1.07084 12.0005L8 7.99999L3.28126 6.125L0 7.99999Z" fill="#FF5178"/>
<path id="Vector_16" d="M1.07084 4C0.389924 5.17685 0 6.54313 0 8.00055H8L7.0625 4H1.07084Z" fill="#FF9259"/>
<path id="Vector_17" d="M3.99941 1.07031C2.78541 1.77274 1.77322 2.78492 1.0708 3.99892L7.99996 7.99947L7.06246 1.07031H3.99941Z" fill="#FFB24A"/>
<path id="Vector_18" d="M8.00006 0C6.54264 0 5.17636 0.389924 3.99951 1.07084L8.00006 8V0Z" fill="#FFD23B"/>
<path id="Vector_19" d="M8 3.49219V12.5063C10.4892 12.5063 12.507 10.4884 12.507 7.99923C12.507 5.51005 10.4892 3.49219 8 3.49219Z" fill="#FFF0BE"/>
<path id="Vector_20" d="M11.5415 7.99923C11.5415 5.51005 9.95597 3.49219 8.00021 3.49219C5.51103 3.49219 3.49316 5.51005 3.49316 7.99923C3.49316 10.4884 5.51103 12.5063 8.00021 12.5063C9.95597 12.5063 11.5415 10.4884 11.5415 7.99923Z" fill="white"/>
<path id="Vector_21" d="M9.47007 7.14941L8 5.42383V10.3333C9.06678 10.3333 9.93159 9.46848 9.93159 8.4017C9.93159 7.92376 9.75762 7.48667 9.47007 7.14941Z" fill="#FF3187"/>
<path id="Vector_22" d="M8.96574 8.4017C8.96574 7.92376 8.87876 7.48667 8.73498 7.14941L7.99995 5.42383L6.52988 7.14941C6.24233 7.48667 6.06836 7.92376 6.06836 8.4017C6.06836 9.46848 6.93316 10.3333 7.99995 10.3333C8.53336 10.3333 8.96574 9.46848 8.96574 8.4017Z" fill="#FF5178"/>
</g>
<defs>
<clipPath id="clip0_261_7417">
<rect width="16" height="16" fill="white"/>
</clipPath>
</defs>
</svg>
