<svg width="24" height="24" viewBox="0 0 24 24" fill="none" xmlns="http://www.w3.org/2000/svg">
<g id="WISHLIST">
<circle id="Ellipse 1" cx="12" cy="12" r="12" fill="white"/>
<g id="favorite">
<mask id="mask0_278_7932" style="mask-type:alpha" maskUnits="userSpaceOnUse" x="5" y="5" width="14" height="14">
<rect id="Bounding box" x="5" y="5" width="14" height="14" fill="#D9D9D9"/>
</mask>
<g mask="url(#mask0_278_7932)">
<path id="favorite_2" d="M12 17.2499L11.1542 16.4916C10.1722 15.6069 9.36042 14.8437 8.71876 14.202C8.07709 13.5604 7.56667 12.9843 7.18751 12.4739C6.80834 11.9635 6.54341 11.4944 6.39271 11.0666C6.24202 10.6388 6.16667 10.2013 6.16667 9.75411C6.16667 8.84022 6.47292 8.07703 7.08542 7.46453C7.69792 6.85203 8.46112 6.54578 9.37501 6.54578C9.88056 6.54578 10.3618 6.65272 10.8188 6.86661C11.2757 7.0805 11.6694 7.38189 12 7.77078C12.3306 7.38189 12.7243 7.0805 13.1813 6.86661C13.6382 6.65272 14.1195 6.54578 14.625 6.54578C15.5389 6.54578 16.3021 6.85203 16.9146 7.46453C17.5271 8.07703 17.8333 8.84022 17.8333 9.75411C17.8333 10.2013 17.758 10.6388 17.6073 11.0666C17.4566 11.4944 17.1917 11.9635 16.8125 12.4739C16.4333 12.9843 15.9229 13.5604 15.2813 14.202C14.6396 14.8437 13.8278 15.6069 12.8458 16.4916L12 17.2499Z" fill="#F6BACB"/>
</g>
</g>
</g>
</svg>
