<svg width="24" height="24" viewBox="0 0 24 24" fill="none" xmlns="http://www.w3.org/2000/svg">
<g id="WISHLIST">
<circle id="Ellipse 1" cx="12" cy="12" r="12" fill="white"/>
<g id="favorite">
<mask id="mask0_241_3994" style="mask-type:alpha" maskUnits="userSpaceOnUse" x="5" y="5" width="14" height="14">
<rect id="Bounding box" x="5" y="5" width="14" height="14" fill="#D9D9D9"/>
</mask>
<g mask="url(#mask0_241_3994)">
<path id="favorite_2" d="M11.8333 17.7042L10.9875 16.9458C10.0055 16.0611 9.19374 15.2979 8.55208 14.6563C7.91041 14.0146 7.39999 13.4385 7.02083 12.9281C6.64166 12.4177 6.37673 11.9486 6.22603 11.5208C6.07534 11.0931 5.99999 10.6556 5.99999 10.2083C5.99999 9.29444 6.30624 8.53125 6.91874 7.91875C7.53124 7.30625 8.29444 7 9.20833 7C9.71388 7 10.1951 7.10694 10.6521 7.32083C11.109 7.53472 11.5028 7.83611 11.8333 8.225C12.1639 7.83611 12.5576 7.53472 13.0146 7.32083C13.4715 7.10694 13.9528 7 14.4583 7C15.3722 7 16.1354 7.30625 16.7479 7.91875C17.3604 8.53125 17.6667 9.29444 17.6667 10.2083C17.6667 10.6556 17.5913 11.0931 17.4406 11.5208C17.2899 11.9486 17.025 12.4177 16.6458 12.9281C16.2667 13.4385 15.7562 14.0146 15.1146 14.6563C14.4729 15.2979 13.6611 16.0611 12.6792 16.9458L11.8333 17.7042ZM11.8333 16.1292C12.7667 15.2931 13.5347 14.576 14.1375 13.9781C14.7403 13.3802 15.2167 12.8601 15.5667 12.4177C15.9167 11.9753 16.1597 11.5816 16.2958 11.2365C16.4319 10.8913 16.5 10.5486 16.5 10.2083C16.5 9.625 16.3055 9.13889 15.9167 8.75C15.5278 8.36111 15.0417 8.16667 14.4583 8.16667C14.0014 8.16667 13.5785 8.29549 13.1896 8.55313C12.8007 8.81076 12.5333 9.13889 12.3875 9.5375H11.2792C11.1333 9.13889 10.866 8.81076 10.4771 8.55313C10.0882 8.29549 9.66527 8.16667 9.20833 8.16667C8.62499 8.16667 8.13888 8.36111 7.74999 8.75C7.3611 9.13889 7.16666 9.625 7.16666 10.2083C7.16666 10.5486 7.23471 10.8913 7.37083 11.2365C7.50694 11.5816 7.74999 11.9753 8.09999 12.4177C8.44999 12.8601 8.92638 13.3802 9.52916 13.9781C10.1319 14.576 10.9 15.2931 11.8333 16.1292Z" fill="#7A8089"/>
</g>
</g>
</g>
</svg>
